/* XPM */
static char * mini_xterm_32x32_xpm[] = {
"32 32 253 2",
"  	c None",
". 	c #FF4A00",
"+ 	c #FF4B00",
"@ 	c #FF4C00",
"# 	c #FF4800",
"$ 	c #FE1800",
"% 	c #FE0700",
"& 	c #FF3900",
"* 	c #FE0F00",
"= 	c #FF4900",
"- 	c #F3490B",
"; 	c #C4593B",
"> 	c #BE5B41",
", 	c #BB4544",
"' 	c #B62E49",
") 	c #B1314E",
"! 	c #AB3554",
"~ 	c #A64B59",
"{ 	c #9F6660",
"] 	c #996966",
"^ 	c #936B6C",
"/ 	c #90706F",
"( 	c #4F88B0",
"_ 	c #029EFF",
": 	c #049CFF",
"< 	c #0499FF",
"[ 	c #677999",
"} 	c #5F77A1",
"| 	c #5879A6",
"1 	c #527BAD",
"2 	c #4E7AB2",
"3 	c #486EB7",
"4 	c #4274BD",
"5 	c #3B81C5",
"6 	c #4780B9",
"7 	c #FA4504",
"8 	c #FF4D00",
"9 	c #378CC8",
"0 	c #058DFA",
"a 	c #0778F6",
"b 	c #1072EC",
"c 	c #116AEB",
"d 	c #1066EC",
"e 	c #0F63ED",
"f 	c #0D60EE",
"g 	c #0B60EF",
"h 	c #0765F5",
"i 	c #0457F7",
"j 	c #0352F7",
"k 	c #0150F8",
"l 	c #014CF8",
"m 	c #0148F7",
"n 	c #0145F7",
"o 	c #0253F8",
"p 	c #0261F9",
"q 	c #014DF8",
"r 	c #013AF6",
"s 	c #0133F5",
"t 	c #0130F5",
"u 	c #012CF5",
"v 	c #0129F5",
"w 	c #0125F4",
"x 	c #057CF8",
"y 	c #0297FE",
"z 	c #011DF3",
"A 	c #0000F1",
"B 	c #0001F1",
"C 	c #0F69ED",
"D 	c #1089EF",
"E 	c #0B97F5",
"F 	c #1295EE",
"G 	c #0597FB",
"H 	c #012EF5",
"I 	c #026BFB",
"J 	c #0399FE",
"K 	c #0394FE",
"L 	c #079CFA",
"M 	c #0F80EF",
"N 	c #013FF6",
"O 	c #000AF2",
"P 	c #012FF5",
"Q 	c #0395FE",
"R 	c #028BFD",
"S 	c #012DF5",
"T 	c #0C8FF3",
"U 	c #3780C9",
"V 	c #AC3553",
"W 	c #E50F19",
"X 	c #FE0000",
"Y 	c #FF2200",
"Z 	c #A3695C",
"` 	c #0274FB",
" .	c #039AFF",
"..	c #C3303C",
"+.	c #5471AC",
"@.	c #0B95F4",
"#.	c #0135F6",
"$.	c #0399FF",
"%.	c #0152F9",
"&.	c #039AFE",
"*.	c #FE1500",
"=.	c #D04E2E",
"-.	c #0B82F3",
";.	c #03A0FE",
">.	c #0298FE",
",.	c #026AFB",
"'.	c #0004F1",
").	c #039BFF",
"!.	c #000EF2",
"~.	c #025DF9",
"{.	c #FE0500",
"].	c #D62028",
"^.	c #1184ED",
"/.	c #03A0FF",
"(.	c #FF3B00",
"_.	c #FE0400",
":.	c #FF4500",
"<.	c #0270FB",
"[.	c #000FF2",
"}.	c #0278FB",
"|.	c #0299FE",
"1.	c #FF3400",
"2.	c #DB1523",
"3.	c #1283ED",
"4.	c #039EFF",
"5.	c #FE0800",
"6.	c #FE3000",
"7.	c #0398FE",
"8.	c #026CFA",
"9.	c #039DFE",
"0.	c #039CFE",
"a.	c #FE1B00",
"b.	c #E1111D",
"c.	c #1185EE",
"d.	c #039CFF",
"e.	c #F44D0A",
"f.	c #FE1900",
"g.	c #039CFD",
"h.	c #E60E18",
"i.	c #1189EF",
"j.	c #0A96F7",
"k.	c #EE380F",
"l.	c #FF3A00",
"m.	c #EB0B13",
"n.	c #108BF0",
"o.	c #0D92F3",
"p.	c #EA1014",
"q.	c #FE3B00",
"r.	c #F0280E",
"s.	c #0E8EF2",
"t.	c #0F8EF1",
"u.	c #E42F19",
"v.	c #F54D09",
"w.	c #108AF0",
"x.	c #DF541F",
"y.	c #0B97F6",
"z.	c #1086EE",
"A.	c #D95725",
"B.	c #099AF7",
"C.	c #1183ED",
"D.	c #D43D29",
"E.	c #0A9AF7",
"F.	c #127FEC",
"G.	c #D11E2E",
"H.	c #FE4200",
"I.	c #0A98F6",
"J.	c #127DEC",
"K.	c #CC2033",
"L.	c #FE0D00",
"M.	c #FE2400",
"N.	c #1279EB",
"O.	c #C72438",
"P.	c #FF2300",
"Q.	c #FE0300",
"R.	c #0D98F3",
"S.	c #0003F1",
"T.	c #1377EB",
"U.	c #C2263D",
"V.	c #FE3C00",
"W.	c #FF2D00",
"X.	c #0D96F3",
"Y.	c #0006F2",
"Z.	c #1277EB",
"`.	c #BC2F43",
" +	c #FE0900",
".+	c #FE1600",
"++	c #049AFD",
"@+	c #0005F1",
"#+	c #0B6AF0",
"$+	c #A85B57",
"%+	c #FF1C00",
"&+	c #FE0600",
"*+	c #0394FD",
"=+	c #0143F7",
"-+	c #667A99",
";+	c #FE1E00",
">+	c #FE3600",
",+	c #FE4400",
"'+	c #FF3800",
")+	c #0275FB",
"!+	c #011FF4",
"~+	c #0B92F4",
"{+	c #FE0A00",
"]+	c #F81306",
"^+	c #D1372D",
"/+	c #B0644F",
"(+	c #0398FF",
"_+	c #013EF6",
":+	c #027FFC",
"<+	c #1990E5",
"[+	c #6F7290",
"}+	c #884C77",
"|+	c #B32F4C",
"1+	c #FE2500",
"2+	c #D52429",
"3+	c #069EFB",
"4+	c #0487FA",
"5+	c #026EFB",
"6+	c #011DF4",
"7+	c #0121F4",
"8+	c #0132F5",
"9+	c #025FF9",
"0+	c #027DFC",
"a+	c #0390FD",
"b+	c #3974C7",
"c+	c #FF2E00",
"d+	c #FE3D00",
"e+	c #DD4E21",
"f+	c #0F96F1",
"g+	c #0296FE",
"h+	c #0295FF",
"i+	c #0294FE",
"j+	c #0393FE",
"k+	c #1390EB",
"l+	c #5E7AA1",
"m+	c #924B6D",
"n+	c #FE4900",
"o+	c #FF2C00",
"p+	c #FF4200",
"q+	c #FE0200",
"r+	c #FE1100",
"s+	c #FF2700",
"t+	c #FE2200",
"u+	c #FE1200",
"v+	c #FE2100",
"w+	c #FF4600",
"x+	c #FF3300",
"y+	c #FE0B00",
"z+	c #FF2B00",
"A+	c #FF4700",
"B+	c #FF3600",
"C+	c #FF2800",
"D+	c #FF2900",
"                                                                ",
"                                                                ",
"    . . . . . . . . . . . . .           . . . + + + . + + + @   ",
"    # $ % % % % % % % % % % &           + * % % % % % % % % .   ",
"    = - ; > , ' ) ! ~ { ] ^ / (   _ : < [ } | 1 2 3 4 5 6 7 8   ",
"      9 0 a b c d e f g h i j k l m n o p q r s t u v w x       ",
"      y z A A B u C D E F G H A A A I J K y L M N O A A P Q     ",
"      R A A S T U V W X Y Z ` A A A  .      . ..+.@.#.A B K     ",
"    $.m B %.&.  . *.X X X =.-.A A A ;.    = Y * .   >.,.'.q  .  ",
"    ).!.~. .      # {.X X ].^.A A A /.  . (._.:.      $.<.[.).  ",
"    }.N |.        . 1.X X 2.3.A A A 4.  = 5.6.#         7.8.Q   ",
"    9.0.            = a.X b.c.A A A d.e.$ f..             g.    ",
"                      . 5.h.i.A A A j.k.5.=                     ",
"                      . l.m.n.A A A o.p.q.+                     ",
"                        = r.s.A A A t.u.=                       ",
"                          v.o.A A A w.x.                        ",
"                            y.A A A z.A.                        ",
"                            B.A A A C.D..                       ",
"                            E.A A A F.G.H.                      ",
"                          + I.A A A J.K.L.+                     ",
"                        = M.E A A A N.O.X P.=                   ",
"                      . (.Q.R.S.A A T.U.X X V.+                 ",
"                      = 5.W.X.Y.A A Z.`.X X  +=                 ",
"                    . f..+= ++@+A A #+$+X X X %+.               ",
"                  # 6.&+#   *+A A A =+-+;+X X X >+.             ",
"                  ,+_.'++   )+A A A !+~+. {+X X &+#             ",
"                + ]+^+/+  (+_+A A A S.:+<+[+}+|+X .+.           ",
"              # 1+2+3+4+5+N 6+7+w v u 8+9+0+a+b+X X c+=         ",
"            . d+Q.e+f+y g+h+i+i+j+K j+K K k+l+m+X X Q.:.        ",
"    + # # = n+ +o+@ # # .               # # + p+q+X X r+. # # = ",
"    + s+t+t+u+Q.v+t+t+t+w+            # x+t+t+t+y+X X X $ t+t+'+",
"    + z+s+s+s+s+s+s+s+s+A+            # B+s+s+s+s+C+C+C+C+C+D+(."};
