/* XPM */
static char * mini_xterm_48x48_xpm[] = {
"48 48 208 2",
"  	c None",
". 	c #FF4C00",
"+ 	c #FF4D00",
"@ 	c #FF4B00",
"# 	c #FF3A00",
"$ 	c #FF1F00",
"% 	c #FF2F00",
"& 	c #FF3700",
"* 	c #FF3400",
"= 	c #FF2C00",
"- 	c #FF0000",
"; 	c #FF1A00",
"> 	c #FF2700",
", 	c #FF2300",
"' 	c #FF1900",
") 	c #FF0200",
"! 	c #FF4100",
"~ 	c #FF2900",
"{ 	c #FF2200",
"] 	c #FF4800",
"^ 	c #FF0700",
"/ 	c #FF1000",
"( 	c #FF3F00",
"_ 	c #FF0E00",
": 	c #FF4E00",
"< 	c #FF3600",
"[ 	c #FF0C00",
"} 	c #00A1FF",
"| 	c #02A0FC",
"1 	c #059FFA",
"2 	c #059EFA",
"3 	c #059DFA",
"4 	c #01A0FD",
"5 	c #00A0FF",
"6 	c #009FFF",
"7 	c #0073FB",
"8 	c #0042F7",
"9 	c #0048F7",
"0 	c #0058F9",
"a 	c #0043F7",
"b 	c #0057F9",
"c 	c #004AF7",
"d 	c #004CF8",
"e 	c #00A2FF",
"f 	c #001FF4",
"g 	c #0000F1",
"h 	c #0001F1",
"i 	c #002DF5",
"j 	c #0169F9",
"k 	c #0684F7",
"l 	c #0496FA",
"m 	c #0087FC",
"n 	c #0025F4",
"o 	c #0003F1",
"p 	c #0077FC",
"q 	c #009BFF",
"r 	c #0498FB",
"s 	c #0168F9",
"t 	c #0083FC",
"u 	c #0008F2",
"v 	c #0051F8",
"w 	c #058FF9",
"x 	c #2E82D1",
"y 	c #6F5A90",
"z 	c #8B4A74",
"A 	c #A73758",
"B 	c #BD5341",
"C 	c #976F67",
"D 	c #039DFB",
"E 	c #006BFA",
"F 	c #0029F5",
"G 	c #977067",
"H 	c #AB6854",
"I 	c #8C5573",
"J 	c #6D5C92",
"K 	c #3389CC",
"L 	c #0191FC",
"M 	c #000AF2",
"N 	c #0041F7",
"O 	c #0040F7",
"P 	c #008CFD",
"Q 	c #069EF8",
"R 	c #6B7D93",
"S 	c #D0292F",
"T 	c #FF0900",
"U 	c #FF4900",
"V 	c #747B8A",
"W 	c #009AFF",
"X 	c #FF2D00",
"Y 	c #0091FD",
"Z 	c #009DFF",
"` 	c #009CFE",
" .	c #0044F7",
"..	c #FF4000",
"+.	c #FF1C00",
"@.	c #986E67",
"#.	c #0299FB",
"$.	c #0056F8",
"%.	c #029CFC",
"&.	c #FF4200",
"*.	c #FF0300",
"=.	c #0050F8",
"-.	c #0002F1",
";.	c #0064F9",
">.	c #009EFE",
",.	c #0061F9",
"'.	c #00A3FF",
").	c #976067",
"!.	c #0498FA",
"~.	c #1C94E2",
"{.	c #00A1FE",
"].	c #0020F4",
"^.	c #0034F6",
"/.	c #FF1200",
"(.	c #984467",
"_.	c #2990D6",
":.	c #008AFD",
"<.	c #0096FE",
"[.	c #009EFF",
"}.	c #FF4400",
"|.	c #FF0400",
"1.	c #984167",
"2.	c #0497FA",
"3.	c #298CD6",
"4.	c #FF1400",
"5.	c #2985D6",
"6.	c #FF0500",
"7.	c #FF4600",
"8.	c #FF1700",
"9.	c #2983D6",
"0.	c #FF4700",
"a.	c #FF0600",
"b.	c #2988D6",
"c.	c #298FD6",
"d.	c #2591D9",
"e.	c #984667",
"f.	c #1C93E2",
"g.	c #976367",
"h.	c #298DD6",
"i.	c #976167",
"j.	c #FF4A00",
"k.	c #984567",
"l.	c #FF1E00",
"m.	c #985467",
"n.	c #FF0D00",
"o.	c #976D67",
"p.	c #0399FB",
"q.	c #FF1800",
"r.	c #92706C",
"s.	c #009AFE",
"t.	c #FF3000",
"u.	c #FF2A00",
"v.	c #4889B6",
"w.	c #FF3800",
"x.	c #2984D6",
"y.	c #FF1300",
"z.	c #FF0800",
"A.	c #0098FE",
"B.	c #0052F8",
"C.	c #2293DD",
"D.	c #FF2E00",
"E.	c #008DFD",
"F.	c #0C9BF2",
"G.	c #FF0B00",
"H.	c #007DFC",
"I.	c #003AF6",
"J.	c #EB5213",
"K.	c #FF3B00",
"L.	c #FF0100",
"M.	c #FF2400",
"N.	c #FF0F00",
"O.	c #FF3D00",
"P.	c #000CF2",
"Q.	c #408CBE",
"R.	c #FF2800",
"S.	c #ED5212",
"T.	c #0093FD",
"U.	c #000DF2",
"V.	c #005BF9",
"W.	c #458BB9",
"X.	c #9D6D61",
"Y.	c #BD3442",
"Z.	c #CC2033",
"`.	c #DC1523",
" +	c #FF0A00",
".+	c #FF3900",
"++	c #5784A7",
"@+	c #0094FE",
"#+	c #0069FA",
"$+	c #0087FD",
"%+	c #019FFD",
"&+	c #0D97F2",
"*+	c #FF4500",
"=+	c #079FF7",
"-+	c #0086FD",
";+	c #0079FB",
">+	c #0070FB",
",+	c #0081FC",
"'+	c #0095FE",
")+	c #0B98F4",
"!+	c #FF3200",
"~+	c #5585AA",
"{+	c #1C98E2",
"]+	c #02A1FC",
"^+	c #4F87B0",
"/+	c #5A6FA5",
"(+	c #FF1B00",
"_+	c #FF2B00",
"                                                                                                ",
"                                                                                                ",
"    . + + + + + + + + + + + + + + + + + +               + + + + + + + + + + + + + + + +         ",
"    @ # $ $ $ $ $ $ $ $ $ $ $ $ $ $ $ % +               . & $ $ $ $ $ $ $ $ $ $ $ $ * +         ",
"    @ = - - - - - - - - - - - - - - - ; +               . > - - - - - - - - - - - - , +         ",
"    . + + + + + ' - - - - ) ! + + + + + +               . + + + + + + ~ - { + + + + + +         ",
"              + ] ^ - - - - / . +                               + + ( ) _ . :                   ",
"                . < - - - - - > +                               . @ [ ) ! .                     ",
"              } | 1 2 3 3 3 3 3 1 1 } } } } } } } } } } } } } | 1 2 3 2 1 4 } } } 5             ",
"            6 7 8 8 8 8 8 8 8 8 8 9 0 9 8 8 8 8 8 8 8 8 a b c 8 8 8 8 8 8 8 8 8 d e             ",
"            e f g g g g h i j k l e e 5 m n g g g g o p q e e r k s i h g g g g g t 5           ",
"          } t g g g u v w e x y z A B C D E g g g g F e   G H I J K e L v M g g g N }           ",
"          } O g g f P Q R S - - - - T U V W g g g g v 6   . X - $ +   } 5 Y n g g u Z           ",
"          ` u g  .6 6   . ..) - - - - +.@.#.g g g g $.%.. &.*.[ @ .       6 } =.-.g ;.>.        ",
"        6 ,.g c e '.      + ~ - - - - - ).!.g g g g $.~.. _ ) ( +             {.E h n e         ",
"        e ].^.}           + . /.- - - - (.!.g g g g $._., - ~ .                 } $.g :.}       ",
"      5 <.^.[.5             . }.|.- - - 1.2.g g g g $.3.- 4.. .                   e 9 E }       ",
"      } 5 e 6                 . % - - - 1.2.g g g g $.5.6.7..                     } e } 6       ",
"                                + 8.- - 1.2.g g g g $.9.* .                                     ",
"                                . 0.a.- 1.2.g g g g $.b.+                                       ",
"                                  . * - 1.2.g g g g $.c..                                       ",
"                                    + +.1.2.g g g g $.d.                                        ",
"                                    + U e.2.g g g g $.f.                                        ",
"                                      . g.2.g g g g $._.                                        ",
"                                      : @.2.g g g g $.h..                                       ",
"                                      + i.2.g g g g $.5.j..                                     ",
"                                    + 0.k.2.g g g g $.9.l.+                                     ",
"                                  + + 8.1.!.g g g g $.9.- < .                                   ",
"                                  . X - m.!.g g g g $.9.- ^ ] @                                 ",
"                                . ! ) n.o.p.g g g g $.9.- - q.+                                 ",
"                              + . _ ) ( r.s.g g g g $.9.- - - t..                               ",
"                              + { - u.+ v.s.g g g g $.9.- - - |.}..                             ",
"                            . w.- 4.+ :   s.g g g g $.x.- - - - y.. +                           ",
"                          . ] z.6.7..     s.g g g g $.3.- - - - - u.+                           ",
"                          + q.- * +       A.g g g g B.C.l.- - - - ) ...                         ",
"                        + D.- l.+       '.E.g g g g 9 F.j.G.- - - - _ . +                       ",
"                      @ &.*.G.j..       e H.g g g g I.} J.K.L.- - - - M.+                       ",
"                    + @ N.L.O.@         5 c g g g g P.6 Q.+ M.- - - - L.K..                     ",
"                    + M.- R.S.        6 T.U.g g g g g V.e W.X.Y.Z.`.- -  +j.+                   ",
"                  . .+L./.. ++e e e @+#+U.g g g g g g g a $+%+e e &+- - - l.+                   ",
"                . U z.6.*+. =+5 -+;+>+>+>+>+>+>+>+>+>+>+>+>+7 ,+'+)+- - - - < +                 ",
"              : + ; - !++   ~+{+{+{+]+e e e e e e e e {+{+{+{+Q.^+/+- - - - ^ ] .               ",
"    + + + + + + t.- (++ + + + + + +                   + + + + + + }.|.- - - - q.+ + + + + +     ",
"    + > _ _ _ _ *.- G._ _ _ _ _ > +                   + _+_ _ _ _ _ 6.- - - - - n._ _ _ ~ +     ",
"    + ~ y.y.y.y.y.y.y.y.y.y.y.y.u.+                   + X y.y.y.y.y.y.y.y.y.y.y.y.y.y.y.= +     ",
"    + + + + + + + + + + + + + + + +                   + + + + + + + + + + + + + + + + + + +     ",
"                                                                                                ",
"                                                                                                "};
