/* XPM */
static char * mini_xterm_16x16_xpm[] = {
"16 16 94 2",
"  	c None",
". 	c #FF2F00",
"+ 	c #FF2100",
"@ 	c #FE1300",
"# 	c #FE1800",
"$ 	c #FF2500",
"% 	c #FF3600",
"& 	c #FF4400",
"* 	c #FF2300",
"= 	c #FE1B00",
"- 	c #FF4300",
"; 	c #3680C9",
"> 	c #1257E8",
", 	c #214ED8",
"' 	c #2257D9",
") 	c #1F74DE",
"! 	c #0B71F1",
"~ 	c #0257F7",
"{ 	c #0158F9",
"] 	c #0871F4",
"^ 	c #1278EB",
"/ 	c #225AD8",
"( 	c #1955E0",
"_ 	c #0A57EF",
": 	c #2180DD",
"< 	c #0252F8",
"[ 	c #0018F3",
"} 	c #2361D8",
"| 	c #8F4770",
"1 	c #B73748",
"2 	c #4787B9",
"3 	c #0013F3",
"4 	c #000BF2",
"5 	c #099CF8",
"6 	c #AB5855",
"7 	c #83617C",
"8 	c #0660F4",
"9 	c #014CF8",
"0 	c #013AF6",
"a 	c #0393FE",
"b 	c #FF2C00",
"c 	c #FE0000",
"d 	c #B1494D",
"e 	c #011EF4",
"f 	c #0014F3",
"g 	c #877079",
"h 	c #FE2100",
"i 	c #0290FD",
"j 	c #0132F5",
"k 	c #FE1700",
"l 	c #B32F4C",
"m 	c #A74D58",
"n 	c #FF4100",
"o 	c #B3334C",
"p 	c #9D5F62",
"q 	c #AB5453",
"r 	c #697F97",
"s 	c #9D6562",
"t 	c #9E5D61",
"u 	c #B2454C",
"v 	c #A73D58",
"w 	c #FF2900",
"x 	c #A65B59",
"y 	c #A73858",
"z 	c #FE1900",
"A 	c #FF3A00",
"B 	c #FE2600",
"C 	c #011BF3",
"D 	c #0011F3",
"E 	c #A1515D",
"F 	c #FF2E00",
"G 	c #F2240C",
"H 	c #038EFD",
"I 	c #0006F1",
"J 	c #0002F1",
"K 	c #2D7CD1",
"L 	c #D72427",
"M 	c #F10D0D",
"N 	c #FF3F00",
"O 	c #FE2300",
"P 	c #71768F",
"Q 	c #0590FA",
"R 	c #0267FA",
"S 	c #0256F8",
"T 	c #0464F7",
"U 	c #1689E9",
"V 	c #76578A",
"W 	c #FE1400",
"X 	c #FF2D00",
"Y 	c #FF3700",
"Z 	c #FF3900",
"` 	c #FE1100",
" .	c #FE0600",
"..	c #FE1E00",
"                                ",
"  . + @ # $ %     & $ * = $ -   ",
"  ; > , ' ) ! ~ { ] ^ / ( _ :   ",
"  < [ } | 1 2 3 4 5 6 7 8 3 9   ",
"  0 a   b c d e f g h     i j   ",
"          k l e f m -           ",
"          n o e f p             ",
"            q e f r             ",
"            s e f t             ",
"            u e f v -           ",
"          w x e f y z           ",
"        A B   C D E c F         ",
"        G   H I J K L M N       ",
"      O P Q R S S T U V W       ",
"  X O W B Y       Z B `  ...b   ",
"                                "};
