/* XPM */
static char * mini_xterm_xpm[] = {
"32 32 182 2",
"  	c None",
". 	c #FF4D00",
"+ 	c #FF4300",
"@ 	c #FF3800",
"# 	c #FF4C00",
"$ 	c #FF3D00",
"% 	c #FF1F00",
"& 	c #FF0F00",
"* 	c #FF0400",
"= 	c #FF0000",
"- 	c #FF2B00",
"; 	c #FF3C00",
"> 	c #FF4800",
", 	c #FF0700",
"' 	c #DD5822",
") 	c #C15C3E",
"! 	c #CC2033",
"~ 	c #CC4733",
"{ 	c #CC5E33",
"] 	c #BE6241",
"^ 	c #C4603B",
"/ 	c #AB6854",
"( 	c #C5603A",
"_ 	c #CA5E35",
": 	c #CC2733",
"< 	c #CC4B33",
"[ 	c #C95E36",
"} 	c #D55A2A",
"| 	c #009BFF",
"1 	c #0076FB",
"2 	c #0061F9",
"3 	c #0075FB",
"4 	c #009DFF",
"5 	c #0095FE",
"6 	c #0001F1",
"7 	c #0000F1",
"8 	c #001EF4",
"9 	c #215BDA",
"0 	c #1D81E1",
"a 	c #208DDE",
"b 	c #0B95F3",
"c 	c #0087FD",
"d 	c #000BF2",
"e 	c #000EF2",
"f 	c #008FFE",
"g 	c #009AFE",
"h 	c #0096FD",
"i 	c #1785E6",
"j 	c #1651E4",
"k 	c #000FF2",
"l 	c #005BF9",
"m 	c #0007F2",
"n 	c #176BE3",
"o 	c #2C80D3",
"p 	c #AA3655",
"q 	c #F60609",
"r 	c #FF1E00",
"s 	c #FF4000",
"t 	c #0994F4",
"u 	c #0048F7",
"v 	c #E74B18",
"w 	c #8E4A71",
"x 	c #1991E5",
"y 	c #074FF1",
"z 	c #005CF9",
"A 	c #0097FD",
"B 	c #0024F4",
"C 	c #000DF2",
"D 	c #008CFD",
"E 	c #677D98",
"F 	c #FC4203",
"G 	c #FF3200",
"H 	c #6D7392",
"I 	c #0056F8",
"J 	c #0055F8",
"K 	c #00A2FF",
"L 	c #FF4A00",
"M 	c #FF0900",
"N 	c #FF3500",
"O 	c #ED4812",
"P 	c #0004F1",
"Q 	c #0025F4",
"R 	c #0096FE",
"S 	c #0094FE",
"T 	c #008BFD",
"U 	c #FF2500",
"V 	c #FF0500",
"W 	c #787687",
"X 	c #0E9DF1",
"Y 	c #FF1700",
"Z 	c #FF2200",
"` 	c #FF4400",
" .	c #009EFF",
"..	c #0077FC",
"+.	c #0002F1",
"@.	c #0098FF",
"#.	c #009CFD",
"$.	c #FF0C00",
"%.	c #785E87",
"&.	c #61829E",
"*.	c #FF2D00",
"=.	c #FF1000",
"-.	c #FF4700",
";.	c #0051F8",
">.	c #005DF9",
",.	c #0099FD",
"'.	c #00A0FF",
").	c #0086FC",
"!.	c #FF0200",
"~.	c #785687",
"{.	c #71788E",
"].	c #FF0600",
"^.	c #0085FD",
"/.	c #009FFF",
"(.	c #00A3FF",
"_.	c #FF4E00",
":.	c #FF3900",
"<.	c #785A87",
"[.	c #FF4100",
"}.	c #00A1FF",
"|.	c #FF1C00",
"1.	c #786687",
"2.	c #715E8E",
"3.	c #777988",
"4.	c #697D96",
"5.	c #787A87",
"6.	c #786A87",
"7.	c #FF3700",
"8.	c #71768E",
"9.	c #785787",
"0.	c #FF0E00",
"a.	c #FF4600",
"b.	c #FF1400",
"c.	c #786887",
"d.	c #FF2900",
"e.	c #75788A",
"f.	c #FF2F00",
"g.	c #FF3F00",
"h.	c #FF0800",
"i.	c #3290CD",
"j.	c #676C98",
"k.	c #707C8E",
"l.	c #FF1900",
"m.	c #FF4200",
"n.	c #FF2600",
"o.	c #009AFD",
"p.	c #004CF8",
"q.	c #004AF7",
"r.	c #4786B8",
"s.	c #FF4500",
"t.	c #FF3000",
"u.	c #0092FE",
"v.	c #0039F6",
"w.	c #0392FB",
"x.	c #FF2A00",
"y.	c #E74F18",
"z.	c #0008F2",
"A.	c #0092FD",
"B.	c #257DD8",
"C.	c #C45F3B",
"D.	c #C52F3A",
"E.	c #E70F18",
"F.	c #FF1100",
"G.	c #647C9B",
"H.	c #0070FB",
"I.	c #0032F5",
"J.	c #0020F4",
"K.	c #854E7A",
"L.	c #FF2700",
"M.	c #FF3A00",
"N.	c #FF4B00",
"O.	c #149AEB",
"P.	c #1B9AE4",
"Q.	c #109CEF",
"R.	c #1D98E2",
"S.	c #1F97E0",
"T.	c #468AB9",
"U.	c #A95F56",
"V.	c #FF0100",
"W.	c #FF3B00",
"X.	c #FF0A00",
"Y.	c #FF1800",
"                                                                ",
"                                                                ",
"  . + @ @ @ @ @ @ @ @ @ # $             . @ @ @ @ @ @ @ @ .     ",
"  . % & & * = = = & & & - ;             > & & & , * & & & .     ",
"  . . # ' ) ! ! ! ~ { ] ^ /             ( ] _ { : < [ } # .     ",
"        | 1 2 2 2 2 2 2 2 2 2 2 2 2 2 2 2 2 2 2 2 2 3 4         ",
"        5 6 7 7 8 9 0 a b c d 7 7 e f g h i j k 7 7 6 5         ",
"      h l 7 m n o p q r s t u 7 7 u 4     v w x y 6 7 z A       ",
"      5 B C D E F = = = G H I 7 7 J K   L M N O | 3 P Q R       ",
"      S P T     . U = = V W I 7 7 I X # Y Z `      ...+.R       ",
"    @.l z #.      . $.= = %.I 7 7 I &.*.=.-.        | ;.>.,.    ",
"    '.).4           L !.= ~.I 7 7 I {.].`              .^./.    ",
"      (.            _.:.= ~.I 7 7 I <.N [.              }.      ",
"                      . |.~.I 7 7 I 1.`                         ",
"                        . 2.I 7 7 I 3.                          ",
"                        # 4.I 7 7 I 5.                          ",
"                          5.I 7 7 I 6.7.                        ",
"                          8.I 7 7 I 9.s -                       ",
"                        L <.I 7 7 I ~.0.a.                      ",
"                      # b.c.I 7 7 I ~.= Z ;                     ",
"                    # d.b.e.I 7 7 I ~.= = :.f.                  ",
"                    g.h.a.i.I 7 7 I j.= = h.a.                  ",
"                  L h.@ [.K I 7 7 I k., = = l.m.                ",
"                # b.n.+   o.p.7 7 q.r.s.= = = t.N               ",
"              # d.b.-.    u.v.7 7 v.w._.d.= = * m.x.            ",
"              g.h.y.      u.z.7 7 z.A.B.C.D.E.= F.a.            ",
"            L h.@ G.K c H.I.J.J.J.J.I.H.c K K.= = L.M.          ",
"          N.b.*.N.  O.P.K K K K K K Q.R.S.T.U.= = V.; 7.        ",
"  . @ @ W.Z M -.g.@ g..               . @ g.-.h.= = X.; @ @ .   ",
"  . & & & & & & & & Y.L               s & & & & & & & & & & .   ",
"  . # # # # # # # # . .               . # # # # # # # # # # .   ",
"                                                                "};
