/* XPM */
static char * mini_xterm_xpm[] = {
"16 16 95 2",
"  	c None",
". 	c #FF2E00",
"+ 	c #FF2400",
"@ 	c #FF1F00",
"# 	c #FF2600",
"$ 	c #FF2900",
"% 	c #FF3E00",
"& 	c #FF4700",
"* 	c #FF2300",
"= 	c #FF4100",
"- 	c #FF0200",
"; 	c #FF4300",
"> 	c #FF4B00",
", 	c #FF4500",
"' 	c #2197DE",
") 	c #84677B",
"! 	c #994166",
"~ 	c #945F6B",
"{ 	c #3D8FC2",
"] 	c #905D6F",
"^ 	c #85697A",
"/ 	c #00A2FF",
"( 	c #0046F7",
"_ 	c #0019F3",
": 	c #0943EE",
"< 	c #2E44CB",
"[ 	c #2158D9",
"} 	c #0021F4",
"| 	c #0013F3",
"1 	c #1A60E0",
"2 	c #2A49CF",
"3 	c #0145F7",
"4 	c #0018F3",
"5 	c #002CF5",
"6 	c #008EFD",
"7 	c #0031F5",
"8 	c #0158F7",
"9 	c #EF3C0F",
"0 	c #FF0000",
"a 	c #E1331E",
"b 	c #053DF1",
"c 	c #0026F4",
"d 	c #BD4042",
"e 	c #0054F8",
"f 	c #002DF5",
"g 	c #0084FC",
"h 	c #008CFD",
"i 	c #0065F9",
"j 	c #E1151E",
"k 	c #133EE4",
"l 	c #B65349",
"m 	c #0062FA",
"n 	c #008AFD",
"o 	c #FF4900",
"p 	c #DF1A20",
"q 	c #143AE3",
"r 	c #D94926",
"s 	c #1439E3",
"t 	c #DE3621",
"u 	c #123CE5",
"v 	c #BE4E41",
"w 	c #FF3600",
"x 	c #DD4022",
"y 	c #0C3EEA",
"z 	c #C3333C",
"A 	c #FF2500",
"B 	c #013EF5",
"C 	c #C3263C",
"D 	c #FF2700",
"E 	c #FF2800",
"F 	c #FF3500",
"G 	c #003EF6",
"H 	c #AE4951",
"I 	c #FF0300",
"J 	c #FF3200",
"K 	c #FF3A00",
"L 	c #FC3003",
"M 	c #0010F2",
"N 	c #5D78A1",
"O 	c #EA1215",
"P 	c #FA1505",
"Q 	c #FF2D00",
"R 	c #FF4600",
"S 	c #C2563D",
"T 	c #0196FD",
"U 	c #006CFA",
"V 	c #0041F7",
"W 	c #0762F4",
"X 	c #108EEE",
"Y 	c #BA2A45",
"Z 	c #FF4C00",
"` 	c #FF2000",
" .	c #FF3800",
"..	c #FF0E00",
"+.	c #FF2A00",
"  . + @ # $ %   & $ $ * $ =     ",
"    & - * ;         > + ,       ",
"    ' ) ! ~       { ] ^   /     ",
"    ( _ : < [ } | 1 2 3 4 5     ",
"  6 7 8 9 0 a b c d     e f g   ",
"  h i     + j k c l       m n   ",
"          o p q c               ",
"            r s c               ",
"            t u c v             ",
"          w x y c z .           ",
"        ; A   B c C D           ",
"        E F   G c H I J         ",
"      K L     } M N O P Q       ",
"    R D S T U V V W X Y D       ",
"Z $ ` # $  .    o $ . ....+.=   ",
"                                "};
