/* XPM */
static char * mini_xterm_48x48_xpm[] = {
"48 48 240 2",
"  	c None",
". 	c #FF4E00",
"+ 	c #FF4D00",
"@ 	c #FF4800",
"# 	c #FF3800",
"$ 	c #FF3D00",
"% 	c #FF4300",
"& 	c #FF4200",
"* 	c #FF3B00",
"= 	c #FE0000",
"- 	c #FE1200",
"; 	c #FF2A00",
"> 	c #FE2500",
", 	c #FE1500",
"' 	c #FE0100",
") 	c #FF2F00",
"! 	c #FE1400",
"~ 	c #FF4C00",
"{ 	c #C65E39",
"] 	c #5387AD",
"^ 	c #5B84A5",
"/ 	c #6080A0",
"( 	c #6068A0",
"_ 	c #6066A0",
": 	c #606EA0",
"< 	c #6082A0",
"[ 	c #5E83A2",
"} 	c #1B9AE6",
"| 	c #03A3FF",
"1 	c #5088B0",
"2 	c #5486AC",
"3 	c #6081A0",
"4 	c #6069A0",
"5 	c #5C84A4",
"6 	c #A56A5A",
"7 	c #03A1FF",
"8 	c #039BFF",
"9 	c #0282FC",
"0 	c #0381FA",
"a 	c #0680F7",
"b 	c #067FF7",
"c 	c #0481FA",
"d 	c #0394FE",
"e 	c #029FFE",
"f 	c #014EF8",
"g 	c #0000F1",
"h 	c #0122F4",
"i 	c #013AF6",
"j 	c #014CF8",
"k 	c #025DF9",
"l 	c #026EFA",
"m 	c #0269FA",
"n 	c #0148F7",
"o 	c #0123F4",
"p 	c #011FF4",
"q 	c #026DFA",
"r 	c #025AF9",
"s 	c #0135F6",
"t 	c #0018F3",
"u 	c #0130F5",
"v 	c #03A2FF",
"w 	c #039FFF",
"x 	c #000DF2",
"y 	c #0019F3",
"z 	c #0253F8",
"A 	c #068BF9",
"B 	c #0E98F3",
"C 	c #2889DA",
"D 	c #448BBD",
"E 	c #1E96E1",
"F 	c #039CFE",
"G 	c #0009F2",
"H 	c #0001F1",
"I 	c #0397FE",
"J 	c #02A0FF",
"K 	c #069FFB",
"L 	c #1B97E6",
"M 	c #047FFA",
"N 	c #0141F7",
"O 	c #0390FD",
"P 	c #0266FA",
"Q 	c #000FF2",
"R 	c #0271FB",
"S 	c #0A9DF7",
"T 	c #5A68A6",
"U 	c #B52F4A",
"V 	c #F3060B",
"W 	c #FF2800",
"X 	c #0143F7",
"Y 	c #FD1201",
"Z 	c #E80F16",
"` 	c #A3615C",
" .	c #3E8BC2",
"..	c #039DFE",
"+.	c #0257F9",
"@.	c #0004F1",
"#.	c #014DF8",
"$.	c #0121F4",
"%.	c #0132F5",
"&.	c #62829E",
"*.	c #F3510C",
"=.	c #FE2100",
"-.	c #FE0200",
";.	c #FE3E00",
">.	c #059DFC",
",.	c #025BF9",
"'.	c #013CF6",
").	c #FF2700",
"!.	c #FF2900",
"~.	c #04A2FF",
"{.	c #03A1FE",
"].	c #0289FD",
"^.	c #0120F4",
"/.	c #000EF2",
"(.	c #0280FC",
"_.	c #025FF9",
":.	c #03A0FF",
"<.	c #FF4B00",
"[.	c #FE0C00",
"}.	c #FE0D00",
"|.	c #1598EC",
"1.	c #013DF6",
"2.	c #FF3C00",
"3.	c #014FF8",
"4.	c #FE2300",
"5.	c #1C95E5",
"6.	c #F4500A",
"7.	c #FF4A00",
"8.	c #FE0A00",
"9.	c #FE0500",
"0.	c #FF4600",
"a.	c #0151F8",
"b.	c #0127F4",
"c.	c #0395FE",
"d.	c #014BF7",
"e.	c #1C93E5",
"f.	c #F74F08",
"g.	c #FE1D00",
"h.	c #FF3400",
"i.	c #02A3FF",
"j.	c #0288FD",
"k.	c #0389FD",
"l.	c #0256F8",
"m.	c #FE1000",
"n.	c #1C8EE5",
"o.	c #F63608",
"p.	c #0251F8",
"q.	c #049FFF",
"r.	c #FE0300",
"s.	c #1C8DE5",
"t.	c #F60908",
"u.	c #FE0B00",
"v.	c #FF2D00",
"w.	c #F60508",
"x.	c #FE3D00",
"y.	c #F72B08",
"z.	c #F64E08",
"A.	c #FE3300",
"B.	c #F54E09",
"C.	c #FE1B00",
"D.	c #FF4900",
"E.	c #1C94E5",
"F.	c #1C8FE5",
"G.	c #F62608",
"H.	c #FE2600",
"I.	c #FF3A00",
"J.	c #F60408",
"K.	c #FE0900",
"L.	c #FF3200",
"M.	c #1B95E5",
"N.	c #FE1C00",
"O.	c #0E9AF3",
"P.	c #FE0600",
"Q.	c #FF4700",
"R.	c #FF4400",
"S.	c #FE0400",
"T.	c #039EFF",
"U.	c #FE1700",
"V.	c #FE3B00",
"W.	c #FF2E00",
"X.	c #03A0FE",
"Y.	c #EB2713",
"Z.	c #FE1100",
"`.	c #0145F7",
" +	c #0129F5",
".+	c #D95725",
"++	c #FE4300",
"@+	c #0016F3",
"#+	c #9D6D62",
"$+	c #FE3000",
"%+	c #0394FD",
"&+	c #0003F1",
"*+	c #027DFC",
"=+	c #129AED",
"-+	c #EE5211",
";+	c #FF3E00",
">+	c #FE3200",
",+	c #DB2C23",
"'+	c #B96447",
")+	c #777988",
"!+	c #04A0FF",
"~+	c #0140F6",
"{+	c #012BF5",
"]+	c #039CFF",
"^+	c #129AEF",
"/+	c #677F99",
"(+	c #914D6E",
"_+	c #A5395A",
":+	c #B62E49",
"<+	c #D01E2F",
"[+	c #FF4500",
"}+	c #FE0800",
"|+	c #687E98",
"1+	c #038FFD",
"2+	c #026DFB",
"3+	c #0267FA",
"4+	c #0788F8",
"5+	c #377ECA",
"6+	c #FE2200",
"7+	c #FF3900",
"8+	c #65819B",
"9+	c #0277FB",
"0+	c #0275FB",
"a+	c #0276FB",
"b+	c #0399FE",
"c+	c #367FCB",
"d+	c #FE3900",
"e+	c #FE2400",
"f+	c #6D7D92",
"g+	c #199AE8",
"h+	c #07A0FA",
"i+	c #3B8EC5",
"j+	c #498AB8",
"k+	c #487AB8",
"l+	c #715A8F",
"m+	c #FE3C00",
"n+	c #FF3000",
"o+	c #FF3500",
"p+	c #FE1300",
"q+	c #FF3100",
"                                                                                                ",
"                                                                                                ",
"    . + + + + + + + + + + + + + + + + + +               + + + + + + + + + + + + + + + +         ",
"    + @ # # # # # # # # # # # # # # # $ +               + % # # # # # # # # # # # # & +         ",
"    + * = = = = = = = = = = = = = = = - +               + ; = = = = = = = = = = = = > +         ",
"    + @ # # # # , = = = = ' ) # # # # $ +               + % # # # # # > = ! # # # # & +         ",
"    ~ ~ { ] ] ^ / ( _ _ _ _ : < [ ] ] ] ] } | | | | | | 1 ] ] ] 2 < 3 4 ( / 5 ] ] ] ] 6         ",
"        7 8 9 0 a a b b b b b a a 0 9 9 9 9 9 9 9 9 9 9 9 9 9 9 c a b b a a 0 9 9 9 d e         ",
"        7 f g g g g g g g h i j k l m n o g g g g g g p n m q r n s t g g g g g g g u v         ",
"        w x g g g g y z A v v B C D E 7 F G g g g g H I 7 J K L K v v M N G g g g g H O v       ",
"      w P g g g Q R v S T U V = = W +   7 X g g g g h v     + ~ Y Z `  .v ..+.@.g g g #.7       ",
"      v $.g g %.I w &.*.=.= = = = -.;.~ >.,.g g g g '.v     + ).= !.+     ~.{.].^.g g /.w       ",
"    w (.g H _.v :.    + <.[.= = = = }.~ |.,.g g g g 1.v   + 2.' ! ~ +         e :.3.g g m w     ",
"    v i g ,.v           ~ $ ' = = = = 4.5.,.g g g g 1.v 6.7.8.9.0.~             ~.v a.g b.v     ",
"  v c.@.d.v               + ).= = = = ' e.,.g g g g 1.v f.g.= h.~                 i.v X g j.:.  ",
"  :.k.l.7 ~.              + ~ m.= = = = n.,.g g g g 1.v o.= g.+                     v v p.(.v   ",
"  ~.q.v v                   ~ % r.= = = s.,.g g g g 1.v t.u.7.+                       v v :.v   ",
"                              ~ v.= = = s.,.g g g g 1.v w.x.+                                   ",
"                              ~ + , = = s.,.g g g g 1.v y.+                                     ",
"                                ~ 0.9.= s.,.g g g g 1.v z.~                                     ",
"                                  ~ A.= s.,.g g g g 1.v B.                                      ",
"                                    + C.s.,.g g g g 1.v                                         ",
"                                    + D.n.,.g g g g 1.v                                         ",
"                                      ~ e.,.g g g g 1.v                                         ",
"                                        5.,.g g g g 1.v z.                                      ",
"                                      ~ E.,.g g g g 1.v z..                                     ",
"                                    . ~ F.,.g g g g 1.v G.+                                     ",
"                                    + H.s.,.g g g g 1.v w.I.+                                   ",
"                                  ~ * ' F.,.g g g g 1.v J.K.7.+                                 ",
"                                ~ 7.8.9.E.,.g g g g 1.v J.= g.+                                 ",
"                                + C.= L.M.,.g g g g 1.v J.= = h.+                               ",
"                              ~ L.= N.+ O.,.g g g g 1.v J.= = P.Q.+                             ",
"                            ~ R.S.8.7.~ T.,.g g g g 1.v J.= = = U.+ ~                           ",
"                          + ~ - ' V.~   T.,.g g g g '.v J.= = = = W.+                           ",
"                          + ).= H.+     X.z g g g g s v Y.= = = = r.% <.                        ",
"                        ~ 2.' Z.~ ~     v `.g g g g  +v .+8.= = = = - ~ +                       ",
"                      ~ 7.8.S.++~       v u g g g g @+v #+* ' = = = = W +                       ",
"                      + N.= $++       v %+&+g g g g g *+=+-+> = = = = -.;+~                     ",
"                    + >+= ,+'+)+  ~.!+:.~+g g g g g g {+]+^+/+(+_+:+<+= }.~ +                   ",
"                  ~ [+9.}+|+v v 7 1+2+h g g g g g g g g @+3+4+X.v v 5+= = 6++                   ",
"                + ~ - ' 7+8+w 9 9+0+0+0+0+0+0+0+0+0+0+0+0+0+0+a+(.b+c+= = = d+~                 ",
"                + W = e++ f+g+g+g+g+h+v v v v v v v v g+g+g+g+i+j+k+l+= = = K.D.~               ",
"    + + + + + + m+' m.<.+ + + + + +                   + + + + + + R.9.= = = = N.+ + + + + +     ",
"    ~ h.Z.Z.Z.Z.P.= u.Z.Z.Z.Z.Z.4.+                   + n+Z.Z.Z.Z.Z.P.= = = = = m.Z.Z.Z.W.+     ",
"    ~ o+p+p+p+p+p+p+p+p+p+p+p+p+> +                   + q+p+p+p+p+p+p+p+p+p+p+p+p+p+p+p+) +     ",
"    + + + + + + + + + + + + + + + +                   + + + + + + + + + + + + + + + + + + +     ",
"                                                                                                ",
"                                                                                                "};
