/* XPM */
static char * xterm_color_32x32_xpm[] = {
"32 32 187 2",
"  	c None",
". 	c #000000",
"+ 	c #ACACAC",
"@ 	c #D1D1D1",
"# 	c #C7C7C7",
"$ 	c #C5C5C5",
"% 	c #CBCBCB",
"& 	c #565656",
"* 	c #FFFFFF",
"= 	c #D6D6D6",
"- 	c #100202",
"; 	c #160000",
"> 	c #251F1F",
", 	c #FAFAFA",
"' 	c #C2C2C2",
") 	c #8A8A8A",
"! 	c #232323",
"~ 	c #EBEBEB",
"{ 	c #0F0303",
"] 	c #030000",
"^ 	c #080000",
"/ 	c #281F1F",
"( 	c #BCBCBC",
"_ 	c #B5B5B5",
": 	c #272727",
"< 	c #CDCDCD",
"[ 	c #130000",
"} 	c #2F0700",
"| 	c #4E1000",
"1 	c #4D0F00",
"2 	c #340A00",
"3 	c #230600",
"4 	c #140000",
"5 	c #F9F9F9",
"6 	c #3C0D00",
"7 	c #EC5300",
"8 	c #CD3D00",
"9 	c #5F1600",
"0 	c #D24100",
"a 	c #2D0900",
"b 	c #350C00",
"c 	c #FB6400",
"d 	c #310A00",
"e 	c #BA3600",
"f 	c #140400",
"g 	c #A62E00",
"h 	c #F85F00",
"i 	c #741E00",
"j 	c #481300",
"k 	c #FE7000",
"l 	c #8E2500",
"m 	c #020000",
"n 	c #BD3800",
"o 	c #451100",
"p 	c #FA6300",
"q 	c #260800",
"r 	c #942500",
"s 	c #360C00",
"t 	c #A02C00",
"u 	c #DE4800",
"v 	c #611600",
"w 	c #B43500",
"x 	c #4E1100",
"y 	c #7A1F00",
"z 	c #C73E00",
"A 	c #7D1E00",
"B 	c #742451",
"C 	c #913369",
"D 	c #370F22",
"E 	c #6C6012",
"F 	c #6B6312",
"G 	c #32380A",
"H 	c #393F0B",
"I 	c #171A05",
"J 	c #0A1E1F",
"K 	c #358286",
"L 	c #2F797D",
"M 	c #102C2B",
"N 	c #622445",
"O 	c #8B3365",
"P 	c #F19FDB",
"Q 	c #7D335C",
"R 	c #370F1D",
"S 	c #58CC15",
"T 	c #656312",
"U 	c #666012",
"V 	c #9CAE1F",
"W 	c #94A51E",
"X 	c #141604",
"Y 	c #2C6F72",
"Z 	c #4CC7F5",
"` 	c #102C2C",
" .	c #112929",
"..	c #4AC6F6",
"+.	c #3C8D92",
"@.	c #1D000F",
"#.	c #E587C7",
"$.	c #0F0000",
"%.	c #52D115",
"&.	c #737E16",
"*.	c #6E6C14",
"=.	c #97A81E",
"-.	c #131504",
";.	c #86951B",
">.	c #1D2006",
",.	c #59C8DB",
"'.	c #54BCCA",
").	c #55BDC9",
"!.	c #5ACAE0",
"~.	c #5B5511",
"{.	c #A7BA22",
"].	c #6F7C16",
"^.	c #91A21D",
"/.	c #56BCCB",
"(.	c #5BC9DC",
"_.	c #59C7D7",
":.	c #56BECD",
"<.	c #F7F7F7",
"[.	c #67BA17",
"}.	c #41480D",
"|.	c #4E5710",
"1.	c #56BCCA",
"2.	c #3C8F94",
"3.	c #36868A",
"4.	c #747474",
"5.	c #100008",
"6.	c #9C3F75",
"7.	c #71AA17",
"8.	c #71A617",
"9.	c #120402",
"0.	c #4F5810",
"a.	c #4C550F",
"b.	c #163F3F",
"c.	c #388589",
"d.	c #38898D",
"e.	c #215456",
"f.	c #F8F8F8",
"g.	c #030303",
"h.	c #D2D2D2",
"i.	c #110000",
"j.	c #110202",
"k.	c #B8B8B8",
"l.	c #727272",
"m.	c #716E6E",
"n.	c #170000",
"o.	c #D7D7D7",
"p.	c #818181",
"q.	c #020202",
"r.	c #D5D5D5",
"s.	c #EAEAEA",
"t.	c #9B9B9B",
"u.	c #060606",
"v.	c #262626",
"w.	c #464646",
"x.	c #585858",
"y.	c #5A5A5A",
"z.	c #5F5F5F",
"A.	c #5B5B5B",
"B.	c #3A3A3A",
"C.	c #121212",
"D.	c #DBDBDB",
"E.	c #E1E1E1",
"F.	c #D9D9D9",
"G.	c #DFDFDF",
"H.	c #737373",
"I.	c #434343",
"J.	c #B3B3B3",
"K.	c #FDFDFD",
"L.	c #FEFEFE",
"M.	c #F6F6F6",
"N.	c #7B7B7B",
"O.	c #242424",
"P.	c #777777",
"Q.	c #DADADA",
"R.	c #DCDCDC",
"S.	c #222222",
"T.	c #353535",
"U.	c #696969",
"V.	c #6D6D6D",
"W.	c #606060",
"X.	c #626262",
"Y.	c #808080",
"Z.	c #858585",
"`.	c #E4E4E4",
" +	c #CFCFCF",
".+	c #252525",
"++	c #1F1F1F",
"                                                                ",
"      . + @ # $ $ $ $ $ $ $ $ $ $ $ $ $ $ $ $ $ % @ & .         ",
"      . * = - ; ; ; ; ; ; ; ; ; ; ; ; ; ; ; ; ; > , ' ) !       ",
"      . ~ { ] . . . . . . . . . . . . . . . . . ^ / ( _ , :     ",
"      . < [ } | 1 . 2 | 3 . . . . . . . . . . . . 4 _ _ * 5 .   ",
"      . < [ 6 7 8 . 9 0 a . . . . . . . . . . . . 4 _ _ * * .   ",
"      . < [ . b c d e f . . . . . . . . . . . . . 4 _ _ * * .   ",
"      . < [ . . g h i . . . . . . . . . . . . . . 4 _ _ * * .   ",
"      . < [ . . j k l . . . . . . . . . . . . . . 4 _ _ * * .   ",
"      . < [ . m n o p q . . . . . . . . . . . . . 4 _ _ * * .   ",
"      . < [ . r s . t u . . . . . . . . . . . . . 4 _ _ * * .   ",
"      . < [ v w x . y z A . . . . . . . . . . . . 4 _ _ * * .   ",
"      . < [ . . . . . . . . . . . . . . . . . . . 4 _ _ * * .   ",
"      . < [ B C C C D E F E . G H I . J K . . L M 4 _ _ * * .   ",
"      . < [ N O P Q R S T U . V G W X Y Z `  ...+.4 _ _ * * .   ",
"      . < [ . @.#.. $.%.&.*.. =.-.;.>.Y ,.'.).!.+.4 _ _ * * .   ",
"      . < [ . @.#.. $.S T ~.. {.].^.. Y /.(._.:.+.4 _ _ * <..   ",
"      . < [ . @.#.. $.[.. . . W . }.|.Y 1.2.3.:.+.4 _ _ * 4.    ",
"      . < [ . 5.6.. ^ 7.8.8.9.0.. . a.b.c.. . d.e.4 _ _ f.g.    ",
"      . h.i.. . . . . . . . . . . . . . . . . . m j.k._ l.      ",
"      . * m.[ n.n.n.n.n.n.n.n.n.n.n.n.n.n.n.n.n.{ o.' p.q.      ",
"      . 5 * r.@ @ @ @ @ @ @ @ @ @ @ @ @ @ @ @ @ s.* t.u.        ",
"        . . . . . . . . . . . . . . . . . . . . . . .           ",
"                                                                ",
"        v.w.w.x.y.y.y.y.z.A.y.y.y.y.y.y.y.y.y.y.y.y.B..         ",
"      C.~ <.o.D.f.5 E.F.<.<.D.E.f.f.F.o.<.f.E.G.<.<.H.I.        ",
"      J.<.<.K.K.<.<.K.K.<.<.K.L.M.<.K.K.<.<.K.K.<.f.N.4.        ",
"    O.* <.<.K.K.<.<.K.K.<.<.K.K.<.<.K.K.<.<.L.K.<.P.5 4.        ",
"    @ Q.f.f.R.R.<.f.Q.G.<.f.Q.Q.<.<.F.R.<.f.D.Q.5 P., S.        ",
"  T.<.N.<.U.V.V.V.V.W.y.y.y.y.y.y.y.X.V.V.Y.f.N.Z.`.:           ",
"  W.< @ @ @ @ @ @ @ @ @ @ @ @ @ @ @ @ @ @ @ @  +.+++            ",
"                                                                "};
