/* XPM */
static char * xterm_color_48x48_xpm[] = {
"48 48 228 2",
"  	c None",
". 	c #000000",
"+ 	c #E5E5E5",
"@ 	c #FFFFFF",
"# 	c #E1E1E1",
"$ 	c #060606",
"% 	c #E7E7E7",
"& 	c #D1D1D1",
"* 	c #030303",
"= 	c #E3E3E3",
"- 	c #0C0707",
"; 	c #180000",
"> 	c #120000",
", 	c #1A0000",
"' 	c #0A0707",
") 	c #070707",
"! 	c #050505",
"~ 	c #170000",
"{ 	c #190000",
"] 	c #0F0000",
"^ 	c #100000",
"/ 	c #5C1200",
"( 	c #D33E00",
"_ 	c #E84F00",
": 	c #DA4400",
"< 	c #611300",
"[ 	c #6D1800",
"} 	c #D84200",
"| 	c #DD4400",
"1 	c #931F00",
"2 	c #150400",
"3 	c #FA6300",
"4 	c #E84E00",
"5 	c #010000",
"6 	c #CE4200",
"7 	c #5F1500",
"8 	c #721C00",
"9 	c #FF7500",
"0 	c #9B2600",
"a 	c #741D00",
"b 	c #C33A00",
"c 	c #D54400",
"d 	c #FE6C00",
"e 	c #4D0E00",
"f 	c #EC5100",
"g 	c #0D0200",
"h 	c #1C0600",
"i 	c #FC6800",
"j 	c #FF6E00",
"k 	c #6D1C00",
"l 	c #D44700",
"m 	c #FF7600",
"n 	c #912500",
"o 	c #501400",
"p 	c #E45200",
"q 	c #E45000",
"r 	c #FD6A00",
"s 	c #260700",
"t 	c #040000",
"u 	c #E04900",
"v 	c #220800",
"w 	c #1E0700",
"x 	c #FB6700",
"y 	c #DF4800",
"z 	c #B13000",
"A 	c #6F1A00",
"B 	c #711B00",
"C 	c #FF7400",
"D 	c #841F00",
"E 	c #230500",
"F 	c #8D2400",
"G 	c #EB5100",
"H 	c #480F00",
"I 	c #3C0B00",
"J 	c #F25900",
"K 	c #FC6700",
"L 	c #100200",
"M 	c #451000",
"N 	c #8E2700",
"O 	c #6E1C00",
"P 	c #651900",
"Q 	c #220700",
"R 	c #8C2D63",
"S 	c #C25599",
"T 	c #652347",
"U 	c #645211",
"V 	c #739417",
"W 	c #768817",
"X 	c #161804",
"Y 	c #5C6612",
"Z 	c #5A6412",
"` 	c #474F0E",
" .	c #171A05",
"..	c #214C4E",
"+.	c #53BCC8",
"@.	c #112D2D",
"#.	c #0A2220",
"$.	c #4CB3BC",
"%.	c #215054",
"&.	c #69244A",
"*.	c #9B4476",
"=.	c #B14486",
"-.	c #FED3F7",
";.	c #4B1C35",
">.	c #67B817",
",.	c #64BB17",
"'.	c #6F7E16",
").	c #6F7315",
"!.	c #363C0B",
"~.	c #B4C824",
"{.	c #424A0D",
"].	c #616C13",
"^.	c #C9E028",
"/.	c #479FA7",
"(.	c #45C4F9",
"_.	c #58C2D0",
":.	c #56C1CD",
"<.	c #40C2FD",
"[.	c #47A4AC",
"}.	c #38001E",
"|.	c #FCC3F1",
"1.	c #778B18",
"2.	c #A2B420",
"3.	c #92A31D",
"4.	c #444C0E",
"5.	c #57CBE9",
"6.	c #56CCEB",
"7.	c #56CBEC",
"8.	c #55CAEC",
"9.	c #56CE15",
"0.	c #70A617",
"a.	c #768517",
"b.	c #A6B921",
"c.	c #141604",
"d.	c #30360A",
"e.	c #BCD126",
"f.	c #1B1E05",
"g.	c #58CBE5",
"h.	c #5ACBDF",
"i.	c #327F83",
"j.	c #358285",
"k.	c #58C8DF",
"l.	c #57CCEA",
"m.	c #65BB17",
"n.	c #737E16",
"o.	c #6C6113",
"p.	c #D3EB2A",
"q.	c #A8BB22",
"r.	c #C6DD28",
"s.	c #687415",
"t.	c #2C696B",
"u.	c #59CBE5",
"v.	c #5ACBE4",
"w.	c #235C5F",
"x.	c #58CBE7",
"y.	c #FAFAFA",
"z.	c #050601",
"A.	c #AEC223",
"B.	c #55CBED",
"C.	c #59CDE9",
"D.	c #858585",
"E.	c #3C430C",
"F.	c #99AA1F",
"G.	c #5ACAE2",
"H.	c #2A6A6C",
"I.	c #1C5757",
"J.	c #FCFCFC",
"K.	c #040404",
"L.	c #2A0016",
"M.	c #E98FCE",
"N.	c #749717",
"O.	c #4AD713",
"P.	c #52D114",
"Q.	c #180603",
"R.	c #282C08",
"S.	c #778418",
"T.	c #89981B",
"U.	c #3B848A",
"V.	c #55C1CD",
"W.	c #57C3D4",
"X.	c #3B8A8E",
"Y.	c #838383",
"Z.	c #818181",
"`.	c #0B0707",
" +	c #150000",
".+	c #F9F9F9",
"++	c #6F6F6F",
"@+	c #010101",
"#+	c #A4A4A4",
"$+	c #FBFBFB",
"%+	c #FDFDFD",
"&+	c #FEFEFE",
"*+	c #080808",
"=+	c #212121",
"-+	c #454545",
";+	c #4B4B4B",
">+	c #424242",
",+	c #3D3D3D",
"'+	c #474747",
")+	c #828282",
"!+	c #8E8E8E",
"~+	c #D8D8D8",
"{+	c #0B0B0B",
"]+	c #3F3F3F",
"^+	c #4D4D4D",
"/+	c #494949",
"(+	c #555555",
"_+	c #484848",
":+	c #868686",
"<+	c #EDEDED",
"[+	c #5E5E5E",
"}+	c #505050",
"|+	c #4F4F4F",
"1+	c #909090",
"2+	c #8A8A8A",
"3+	c #F8F8F8",
"4+	c #0E0E0E",
"5+	c #808080",
"6+	c #2B2B2B",
"7+	c #2E2E2E",
"8+	c #202020",
"9+	c #0D0D0D",
"0+	c #111111",
"a+	c #2D2D2D",
"b+	c #9E9E9E",
"c+	c #DFDFDF",
"d+	c #101010",
"e+	c #AEAEAE",
"                                                                                                ",
"            . . . . . . . . . . . . . . . . . . . . . . . . . . . . . . . . . .                 ",
"          . + @ @ @ @ @ @ @ @ @ @ @ @ @ @ @ @ @ @ @ @ @ @ @ @ @ @ @ @ @ @ @ @ # . .             ",
"          . @ @ + $ . . . . . . . . . . . . . . . . . . . . . . . . . . $ % @ @ . & *           ",
"          . @ = - ; > > > > > > > > > > > > > > > > > > > > > > > > > > , ' % @ . @ = )         ",
"          . @ ! ~ . . . . . . . . . . . . . . . . . . . . . . . . . . . . { $ @ . @ @ + )       ",
"          . @ . ] . . . . . . . . . . . . . . . . . . . . . . . . . . . . ^ . @ . @ @ @ # .     ",
"          . @ . ] / ( _ : < . [ } | 1 . . . . . . . . . . . . . . . . . . ^ . @ . @ @ @ @ .     ",
"          . @ . ] . 2 3 4 5 . . 6 7 . . . . . . . . . . . . . . . . . . . ^ . @ . @ @ @ @ .     ",
"          . @ . ] . . 8 9 0 . a b . . . . . . . . . . . . . . . . . . . . ^ . @ . @ @ @ @ .     ",
"          . @ . ] . . . c d e f g . . . . . . . . . . . . . . . . . . . . ^ . @ . @ @ @ @ .     ",
"          . @ . ] . . . h i j k . . . . . . . . . . . . . . . . . . . . . ^ . @ . @ @ @ @ .     ",
"          . @ . ] . . . . l m n . . . . . . . . . . . . . . . . . . . . . ^ . @ . @ @ @ @ .     ",
"          . @ . ] . . . o p q r s . . . . . . . . . . . . . . . . . . . . ^ . @ . @ @ @ @ .     ",
"          . @ . ] . . t u v w x y . . . . . . . . . . . . . . . . . . . . ^ . @ . @ @ @ @ .     ",
"          . @ . ] . . z A . . B C D . . . . . . . . . . . . . . . . . . . ^ . @ . @ @ @ @ .     ",
"          . @ . ] E F G H . . I J K [ L . . . . . . . . . . . . . . . . . ^ . @ . @ @ @ @ .     ",
"          . @ . ] M N N O . . P N N N Q . . . . . . . . . . . . . . . . . ^ . @ . @ @ @ @ .     ",
"          . @ . ] . . . . . . . . . . . . . . . . . . . . . . . . . . . . ^ . @ . @ @ @ @ .     ",
"          . @ . ] . . . . . . . . . . . . . . . . . . . . . . . . . . . . ^ . @ . @ @ @ @ .     ",
"          . @ . ] R S S S S S T U V V V W . X Y Z `  .. . ..+.@.. . #.$.%.^ . @ . @ @ @ @ .     ",
"          . @ . ] &.*.=.-.*.*.;.>.,.'.'.).. !.~.{.].^. .. /.(._.. . :.<.[.^ . @ . @ @ @ @ .     ",
"          . @ . ] . . }.|.. . . >.1.. . . . !.2.. . 3.4.. /.5.6.. . 7.8.[.^ . @ . @ @ @ @ .     ",
"          . @ . ] . . }.|.. . . >.9.0.0.a.. !.b.c.d.e.f.. /.g.h.i.j.k.l.[.^ . @ . @ @ @ @ .     ",
"          . @ . ] . . }.|.. . . >.m.n.n.o.. !.p.q.r.s.. . /.g.t.u.v.w.x.[.^ . @ . @ @ @ y..     ",
"          . @ . ] . . }.|.. . . >.1.. . . . !.2.. z.A. .. /.g.. B.C.. g.[.^ . @ . @ @ @ D..     ",
"          . @ . ] . . }.|.. . . >.1.. . . . !.2.. . E.F.. /.G.. H.I.. g.[.^ . @ . @ @ J.K.      ",
"          . @ . ] . . L.M.. . . N.O.P.P.P.Q.R.S.. . . T.X U.V.. . . . W.X.^ . @ . @ @ Y..       ",
"          . @ . ] . . . . . . . . . . . . . . . . . . . . . . . . . . . . ^ . @ . @ y.K.        ",
"          . @ $ ; . . . . . . . . . . . . . . . . . . . . . . . . . . . . { $ @ . @ Z..         ",
"          . @ = `.> . . . . . . . . . . . . . . . . . . . . . . . . . .  +' % @ . .+*           ",
"          . @ @ = $ . . . . . . . . . . . . . . . . . . . . . . . . . . $ % @ @ . ++.           ",
"          . + @ @ @ @ @ @ @ @ @ @ @ @ @ @ @ @ @ @ @ @ @ @ @ @ @ @ @ @ @ @ @ @ # . @+            ",
"            . . . . . . . . . . . . . . . . . . . . . . . . . . . . . . . . . .                 ",
"                                                                                                ",
"                                                                                                ",
"            . . . . . . . . . . . . . . . . . . . . . . . . . . . . . . . . . . . .             ",
"          . #+$+J.%+%+%+%+%+%+%+%+%+%+%+%+%+%+%+&+@ @ @ @ @ @ @ @ @ @ @ @ @ @ .+*+.             ",
"          =+@ -+@ -+@ ;+@ -+@ >+@ -+@ -+@ ;+@ -+@ >+@ -+@ -+@ ,+@ -+@ >+@ '+@ )+!+.             ",
"        . ~+@ @ @ @ @ @ @ @ @ @ @ @ @ @ @ @ @ @ @ @ @ @ @ @ @ @ @ @ @ @ @ @ J.{+J..             ",
"        ]+@ ^+@ /+@ -+@ (+@ -+@ ^+@ -+@ -+@ (+@ -+@ ^+@ -+@ '+@ (+@ _+@ ^+@ :+!+@ .             ",
"      . <+@ @ @ @ @ @ @ @ @ @ @ @ @ @ @ @ @ @ @ @ @ @ @ @ @ @ @ @ @ @ @ @ J.{+J.@ .             ",
"    . [+@ /+@ }+@ '+@ '+@ _+@ _+@ }+@ '+@ '+@ _+@ -+@ |+@ '+@ '+@ '+@ -+@ 1+2+@ = .             ",
"    @+3+@ @ @ @ @ @ @ @ @ @ @ @ @ @ @ @ @ @ @ @ @ @ @ @ @ @ @ @ @ @ @ @ %+4+J.= )               ",
"  . 5+@ 6+7+@ 8+. . . . . . . . . . . . . . . . . . 9+0+0+0+0+0+a+@ 6+7+b+5+c+)                 ",
"  . .+@ @ @ @ @ @ @ @ @ @ @ @ @ @ @ @ @ @ @ @ @ @ @ @ @ @ @ @ @ @ @ @ @ d+e+*                   ",
"  . . . . . . . . . . . . . . . . . . . . . . . . . . . . . . . . . . . . .                     ",
"                                                                                                "};
