/* XPM */
static char * xterm_color_16x16_xpm[] = {
"16 16 100 2",
"  	c None",
". 	c #8A8A8A",
"+ 	c #999999",
"@ 	c #262626",
"# 	c #BDBABA",
"$ 	c #040000",
"% 	c #000000",
"& 	c #4E4747",
"* 	c #A2A2A2",
"= 	c #787878",
"- 	c #484848",
"; 	c #731A00",
"> 	c #4C1000",
", 	c #6D1800",
"' 	c #0F0200",
") 	c #ABABAB",
"! 	c #FFFFFF",
"~ 	c #0F0300",
"{ 	c #CD3F00",
"] 	c #591600",
"^ 	c #AE3300",
"/ 	c #892400",
"( 	c #7A1F00",
"_ 	c #220700",
": 	c #BB3700",
"< 	c #260900",
"[ 	c #4E1C37",
"} 	c #59223F",
"| 	c #39280D",
"1 	c #51440F",
"2 	c #0D0E03",
"3 	c #141604",
"4 	c #030A0A",
"5 	c #143030",
"6 	c #0E2224",
"7 	c #040F0F",
"8 	c #420E29",
"9 	c #A2497D",
"0 	c #748318",
"a 	c #635D11",
"b 	c #454D0E",
"c 	c #576111",
"d 	c #22433C",
"e 	c #59C6D5",
"f 	c #58C5D7",
"g 	c #1F5254",
"h 	c #1D000F",
"i 	c #8D3C6A",
"j 	c #727715",
"k 	c #3A2308",
"l 	c #4B530F",
"m 	c #545E11",
"n 	c #28493E",
"o 	c #55BCC8",
"p 	c #52BAC4",
"q 	c #F3F3F3",
"r 	c #4E4D4D",
"s 	c #080004",
"t 	c #2D101F",
"u 	c #4D3C0C",
"v 	c #6B6312",
"w 	c #121404",
"x 	c #1B2415",
"y 	c #132E31",
"z 	c #0D191B",
"A 	c #848484",
"B 	c #F2F0F0",
"C 	c #595656",
"D 	c #515151",
"E 	c #131313",
"F 	c #C0BEBE",
"G 	c #717171",
"H 	c #B5B5B5",
"I 	c #ACACAC",
"J 	c #BFBFBF",
"K 	c #AEAEAE",
"L 	c #C1C1C1",
"M 	c #BEBEBE",
"N 	c #B8B8B8",
"O 	c #A8A8A8",
"P 	c #C4C4C4",
"Q 	c #323232",
"R 	c #A1A1A1",
"S 	c #FBFBFB",
"T 	c #FEFEFE",
"U 	c #F9F9F9",
"V 	c #FAFAFA",
"W 	c #E9E9E9",
"X 	c #D5D5D5",
"Y 	c #BABABA",
"Z 	c #CACACA",
"` 	c #B4B4B4",
" .	c #CCCCCC",
"..	c #B6B6B6",
"+.	c #D2D2D2",
"@.	c #D7D7D7",
"#.	c #767676",
"$.	c #858585",
"%.	c #979797",
"&.	c #1B1B1B",
"    . + + + + + + + + + + @     ",
"    # $ % % % % % % % % & * =   ",
"    - ; > , ' % % % % % % ) !   ",
"    - ~ { ] % % % % % % % ) !   ",
"    - % ^ / % % % % % % % ) !   ",
"    - ( _ : < % % % % % % ) !   ",
"    - [ } | 1 2 3 4 5 6 7 ) !   ",
"    - 8 9 0 a b c d e f g ) !   ",
"    - h i j k l m n o p g ) q   ",
"    r s t u v w % x y y z ) A   ",
"    B C D D D D D D E D F G     ",
"                    %           ",
"    H I J K L K M K N O P Q     ",
"  R S T U T V T U T S T W *     ",
"  X W Y Z `  ...Z N +.@.H #.    ",
"  $.$.$.$.%.+ + + + + + &.      "};
