<?xml version="1.0" encoding="UTF-8" standalone="no"?>
<!-- Created with Inkscape (http://www.inkscape.org/) -->

<svg
   xmlns:dc="http://purl.org/dc/elements/1.1/"
   xmlns:cc="http://creativecommons.org/ns#"
   xmlns:rdf="http://www.w3.org/1999/02/22-rdf-syntax-ns#"
   xmlns:svg="http://www.w3.org/2000/svg"
   xmlns="http://www.w3.org/2000/svg"
   xmlns:sodipodi="http://sodipodi.sourceforge.net/DTD/sodipodi-0.dtd"
   xmlns:inkscape="http://www.inkscape.org/namespaces/inkscape"
   width="48px"
   height="48px"
   id="svg2985"
   version="1.1"
   inkscape:version="0.48.1 r9760"
   sodipodi:docname="xterm-color.svg"
   sodipodi:version="0.32"
   inkscape:output_extension="org.inkscape.output.svg.inkscape"
   enable-background="new">
  <title
     id="title2983">terminal</title>
  <defs
     id="defs2987">
    <inkscape:perspective
       sodipodi:type="inkscape:persp3d"
       inkscape:vp_x="0 : 24 : 1"
       inkscape:vp_y="0 : 1000 : 0"
       inkscape:vp_z="48 : 24 : 1"
       inkscape:persp3d-origin="24 : 16 : 1"
       id="perspective11" />
  </defs>
  <sodipodi:namedview
     id="base"
     pagecolor="#ffffff"
     bordercolor="#666666"
     borderopacity="1.0"
     inkscape:pageopacity="0.0"
     inkscape:pageshadow="2"
     inkscape:zoom="9.8994949"
     inkscape:cx="23.527016"
     inkscape:cy="26.008485"
     inkscape:current-layer="layer2"
     showgrid="true"
     inkscape:grid-bbox="true"
     inkscape:document-units="px"
     inkscape:window-width="961"
     inkscape:window-height="767"
     inkscape:window-x="28"
     inkscape:window-y="33"
     inkscape:window-maximized="0"
     objecttolerance="2">
    <inkscape:grid
       type="xygrid"
       id="grid2988"
       empspacing="5"
       visible="true"
       enabled="false"
       snapvisiblegridlinesonly="true" />
  </sodipodi:namedview>
  <metadata
     id="metadata2990">
    <rdf:RDF>
      <cc:Work
         rdf:about="">
        <dc:format>image/svg+xml</dc:format>
        <dc:type
           rdf:resource="http://purl.org/dc/dcmitype/StillImage" />
        <dc:title>xterm</dc:title>
        <cc:license
           rdf:resource="http://creativecommons.org/licenses/by/3.0/" />
        <dc:creator>
          <cc:Agent>
            <dc:title>Thomas E. Dickey</dc:title>
          </cc:Agent>
        </dc:creator>
        <dc:rights>
          <cc:Agent>
            <dc:title>MIT-X11</dc:title>
          </cc:Agent>
        </dc:rights>
        <dc:description>XTerm icon, in SVG format.</dc:description>
        <dc:date>June 14, 2012</dc:date>
        <dc:source>http://invisible-island.net/xterm/</dc:source>
        <dc:identifier>http://invisible-island.net/xterm/xterm</dc:identifier>
      </cc:Work>
      <cc:License
         rdf:about="http://creativecommons.org/licenses/by/3.0/">
        <cc:permits
           rdf:resource="http://creativecommons.org/ns#Reproduction" />
        <cc:permits
           rdf:resource="http://creativecommons.org/ns#Distribution" />
        <cc:requires
           rdf:resource="http://creativecommons.org/ns#Notice" />
        <cc:requires
           rdf:resource="http://creativecommons.org/ns#Attribution" />
        <cc:permits
           rdf:resource="http://creativecommons.org/ns#DerivativeWorks" />
      </cc:License>
    </rdf:RDF>
  </metadata>
  <g
     inkscape:groupmode="layer"
     id="layer3"
     inkscape:label="background"
     style="display:inline"
     sodipodi:insensitive="true">
    <rect
       style="fill:#555500;fill-opacity:1"
       id="rect3381"
       width="47.982246"
       height="48.303047"
       x="0.10101525"
       y="0" />
  </g>
  <g
     inkscape:groupmode="layer"
     id="layer2"
     inkscape:label="Layer"
     style="opacity:1;display:inline">
    <path
       style="fill:none;fill-rule:evenodd;stroke:#000000;stroke-width:1px;stroke-linecap:butt;stroke-linejoin:miter;stroke-opacity:1"
       d="M 6.3639611,36.585276 L 41.51727,36.484261 L 41.51727,42.444161 L 37.47666,46.484771 L 1.4142136,46.484771 L 1.4142136,45.474619 L 6.3639611,36.585276 z"
       id="path2386" />
    <path
       style="fill:none;fill-rule:evenodd;stroke:#000000;stroke-width:1px;stroke-linecap:butt;stroke-linejoin:miter;stroke-opacity:1"
       d="M 36.5,46.5 L 36.5,45.5 L 41,36.5"
       id="path2388" />
    <path
       style="fill:none;fill-rule:evenodd;stroke:#000000;stroke-width:1px;stroke-linecap:butt;stroke-linejoin:miter;stroke-opacity:1"
       d="M 4.5,44.5 L 5.5,44.5"
       id="path2398" />
    <path
       style="fill:none;fill-rule:evenodd;stroke:#000000;stroke-width:1px;stroke-linecap:butt;stroke-linejoin:miter;stroke-opacity:1"
       d="M 7.5,44.5 L 32.5,44.5"
       id="path2400" />
    <path
       style="fill:none;fill-rule:evenodd;stroke:#000000;stroke-width:1px;stroke-linecap:butt;stroke-linejoin:miter;stroke-opacity:1"
       d="M 34.5,44.5 L 35.5,44.5"
       id="path2402" />
    <path
       style="fill:none;fill-rule:evenodd;stroke:#000000;stroke-width:1px;stroke-linecap:butt;stroke-linejoin:miter;stroke-opacity:1"
       d="M 7.5,5.5 L 7.5,29.5 L 9.5,31.5 L 36.5,31.5 L 38.5,29.5 L 38.5,5.5 L 36.5,3.5 L 9.5,3.5 L 7.5,5.5 z"
       id="path2406" />
    <path
       style="fill:none;fill-rule:evenodd;stroke:#000000;stroke-width:1px;stroke-linecap:butt;stroke-linejoin:miter;stroke-opacity:1"
       d="M 5.5,32.5 L 6.5,33.5 L 39.5,33.5 L 40.5,32.5 L 40.5,2.5 L 39.5,1.5 L 6.5,1.5 L 5.5,2.5 L 5.5,32.5 z"
       id="path2408" />
    <path
       style="fill:none;fill-rule:evenodd;stroke:#000000;stroke-width:1px;stroke-linecap:butt;stroke-linejoin:miter;stroke-opacity:1"
       d="M 40.5,32.5 L 41.5,32.5 L 45.5,24.5 L 45.5,6.5 L 41.5,2.5 L 40.5,2.5 L 40.5,32.5 z"
       id="path2410" />
    <path
       style="fill:none;fill-rule:evenodd;stroke:#000000;stroke-width:1px;stroke-linecap:butt;stroke-linejoin:miter;stroke-opacity:1"
       d="M 7.5,38.5 L 7.5,38.5 z"
       id="path2395" />
    <path
       sodipodi:type="arc"
       id="path2413"
       style="fill:#000000;stroke:none"
       sodipodi:cx="7.5"
       sodipodi:cy="38.5"
       sodipodi:rx="0.5"
       sodipodi:ry="0.5"
       d="M 8,38.5 A 0.5,0.5 0 1 1 7,38.5 A 0.5,0.5 0 1 1 8,38.5 z" />
    <path
       sodipodi:type="arc"
       id="path2415"
       style="fill:#000000;stroke:none"
       sodipodi:cx="9.5"
       sodipodi:cy="38.5"
       sodipodi:rx="0.5"
       sodipodi:ry="0.5"
       d="M 10,38.5 A 0.5,0.5 0 1 1 9,38.5 A 0.5,0.5 0 1 1 10,38.5 z" />
    <path
       sodipodi:type="arc"
       id="path2419"
       style="fill:#000000;stroke:none"
       sodipodi:cx="11.5"
       sodipodi:cy="38.5"
       sodipodi:rx="0.5"
       sodipodi:ry="0.5"
       d="M 12,38.5 A 0.5,0.5 0 1 1 11,38.5 A 0.5,0.5 0 1 1 12,38.5 z" />
    <path
       sodipodi:type="arc"
       id="path2421"
       style="fill:#000000;stroke:none"
       sodipodi:cx="13.5"
       sodipodi:cy="38.5"
       sodipodi:rx="0.5"
       sodipodi:ry="0.5"
       d="M 14,38.5 A 0.5,0.5 0 1 1 13,38.5 A 0.5,0.5 0 1 1 14,38.5 z" />
    <path
       sodipodi:type="arc"
       id="path2423"
       style="fill:#000000;stroke:none"
       sodipodi:cx="15.5"
       sodipodi:cy="38.5"
       sodipodi:rx="0.5"
       sodipodi:ry="0.5"
       d="M 16,38.5 A 0.5,0.5 0 1 1 15,38.5 A 0.5,0.5 0 1 1 16,38.5 z" />
    <path
       sodipodi:type="arc"
       id="path2425"
       style="fill:#000000;stroke:none"
       sodipodi:cx="17.5"
       sodipodi:cy="38.5"
       sodipodi:rx="0.5"
       sodipodi:ry="0.5"
       d="M 18,38.5 A 0.5,0.5 0 1 1 17,38.5 A 0.5,0.5 0 1 1 18,38.5 z" />
    <path
       sodipodi:type="arc"
       id="path2427"
       style="fill:#000000;stroke:none"
       sodipodi:cx="19.5"
       sodipodi:cy="38.5"
       sodipodi:rx="0.5"
       sodipodi:ry="0.5"
       d="M 20,38.5 A 0.5,0.5 0 1 1 19,38.5 A 0.5,0.5 0 1 1 20,38.5 z" />
    <path
       sodipodi:type="arc"
       id="path2429"
       style="fill:#000000;stroke:none"
       sodipodi:cx="21.5"
       sodipodi:cy="38.5"
       sodipodi:rx="0.5"
       sodipodi:ry="0.5"
       d="M 22,38.5 A 0.5,0.5 0 1 1 21,38.5 A 0.5,0.5 0 1 1 22,38.5 z" />
    <path
       sodipodi:type="arc"
       id="path2431"
       style="fill:#000000;stroke:none"
       sodipodi:cx="23.5"
       sodipodi:cy="38.5"
       sodipodi:rx="0.5"
       sodipodi:ry="0.5"
       d="M 24,38.5 A 0.5,0.5 0 1 1 23,38.5 A 0.5,0.5 0 1 1 24,38.5 z" />
    <path
       sodipodi:type="arc"
       id="path2433"
       style="fill:#000000;stroke:none"
       sodipodi:cx="25.5"
       sodipodi:cy="38.5"
       sodipodi:rx="0.5"
       sodipodi:ry="0.5"
       d="M 26,38.5 A 0.5,0.5 0 1 1 25,38.5 A 0.5,0.5 0 1 1 26,38.5 z" />
    <path
       sodipodi:type="arc"
       id="path2435"
       style="fill:#000000;stroke:none"
       sodipodi:cx="27.5"
       sodipodi:cy="38.5"
       sodipodi:rx="0.5"
       sodipodi:ry="0.5"
       d="M 28,38.5 A 0.5,0.5 0 1 1 27,38.5 A 0.5,0.5 0 1 1 28,38.5 z" />
    <path
       sodipodi:type="arc"
       id="path2437"
       style="fill:#000000;stroke:none"
       sodipodi:cx="29.5"
       sodipodi:cy="38.5"
       sodipodi:rx="0.5"
       sodipodi:ry="0.5"
       d="M 30,38.5 A 0.5,0.5 0 1 1 29,38.5 A 0.5,0.5 0 1 1 30,38.5 z" />
    <path
       sodipodi:type="arc"
       id="path2439"
       style="fill:#000000;stroke:none"
       sodipodi:cx="31.5"
       sodipodi:cy="38.5"
       sodipodi:rx="0.5"
       sodipodi:ry="0.5"
       d="M 32,38.5 A 0.5,0.5 0 1 1 31,38.5 A 0.5,0.5 0 1 1 32,38.5 z" />
    <path
       sodipodi:type="arc"
       id="path2441"
       style="fill:#000000;stroke:none"
       sodipodi:cx="33.5"
       sodipodi:cy="38.5"
       sodipodi:rx="0.5"
       sodipodi:ry="0.5"
       d="M 34,38.5 A 0.5,0.5 0 1 1 33,38.5 A 0.5,0.5 0 1 1 34,38.5 z" />
    <path
       sodipodi:type="arc"
       id="path2443"
       style="fill:#000000;stroke:none"
       sodipodi:cx="35.5"
       sodipodi:cy="38.5"
       sodipodi:rx="0.5"
       sodipodi:ry="0.5"
       d="M 36,38.5 A 0.5,0.5 0 1 1 35,38.5 A 0.5,0.5 0 1 1 36,38.5 z" />
    <path
       sodipodi:type="arc"
       id="path2445"
       style="fill:#000000;stroke:none"
       sodipodi:cx="37.5"
       sodipodi:cy="38.5"
       sodipodi:rx="0.5"
       sodipodi:ry="0.5"
       d="M 38,38.5 A 0.5,0.5 0 1 1 37,38.5 A 0.5,0.5 0 1 1 38,38.5 z" />
    <path
       sodipodi:type="arc"
       id="path2447"
       style="fill:#000000;stroke:none"
       sodipodi:cx="6.5"
       sodipodi:cy="40.5"
       sodipodi:rx="0.5"
       sodipodi:ry="0.5"
       d="M 7,40.5 A 0.5,0.5 0 1 1 6,40.5 A 0.5,0.5 0 1 1 7,40.5 z" />
    <path
       sodipodi:type="arc"
       id="path2449"
       style="fill:#000000;stroke:none"
       sodipodi:cx="8.5"
       sodipodi:cy="40.5"
       sodipodi:rx="0.5"
       sodipodi:ry="0.5"
       d="M 9,40.5 A 0.5,0.5 0 1 1 8,40.5 A 0.5,0.5 0 1 1 9,40.5 z" />
    <path
       sodipodi:type="arc"
       id="path2451"
       style="fill:#000000;stroke:none"
       sodipodi:cx="10.5"
       sodipodi:cy="40.5"
       sodipodi:rx="0.5"
       sodipodi:ry="0.5"
       d="M 11,40.5 A 0.5,0.5 0 1 1 10,40.5 A 0.5,0.5 0 1 1 11,40.5 z" />
    <path
       sodipodi:type="arc"
       id="path2453"
       style="fill:#000000;stroke:none"
       sodipodi:cx="12.5"
       sodipodi:cy="40.5"
       sodipodi:rx="0.5"
       sodipodi:ry="0.5"
       d="M 13,40.5 A 0.5,0.5 0 1 1 12,40.5 A 0.5,0.5 0 1 1 13,40.5 z" />
    <path
       sodipodi:type="arc"
       id="path2455"
       style="fill:#000000;stroke:none"
       sodipodi:cx="14.5"
       sodipodi:cy="40.5"
       sodipodi:rx="0.5"
       sodipodi:ry="0.5"
       d="M 15,40.5 A 0.5,0.5 0 1 1 14,40.5 A 0.5,0.5 0 1 1 15,40.5 z" />
    <path
       sodipodi:type="arc"
       id="path2457"
       style="fill:#000000;stroke:none"
       sodipodi:cx="16.5"
       sodipodi:cy="40.5"
       sodipodi:rx="0.5"
       sodipodi:ry="0.5"
       d="M 17,40.5 A 0.5,0.5 0 1 1 16,40.5 A 0.5,0.5 0 1 1 17,40.5 z" />
    <path
       sodipodi:type="arc"
       id="path2461"
       style="fill:#000000;stroke:none"
       sodipodi:cx="18.5"
       sodipodi:cy="40.5"
       sodipodi:rx="0.5"
       sodipodi:ry="0.5"
       d="M 19,40.5 A 0.5,0.5 0 1 1 18,40.5 A 0.5,0.5 0 1 1 19,40.5 z" />
    <path
       sodipodi:type="arc"
       id="path2463"
       style="fill:#000000;stroke:none"
       sodipodi:cx="20.5"
       sodipodi:cy="40.5"
       sodipodi:rx="0.5"
       sodipodi:ry="0.5"
       d="M 21,40.5 A 0.5,0.5 0 1 1 20,40.5 A 0.5,0.5 0 1 1 21,40.5 z" />
    <path
       sodipodi:type="arc"
       id="path2465"
       style="fill:#000000;stroke:none"
       sodipodi:cx="22.5"
       sodipodi:cy="40.5"
       sodipodi:rx="0.5"
       sodipodi:ry="0.5"
       d="M 23,40.5 A 0.5,0.5 0 1 1 22,40.5 A 0.5,0.5 0 1 1 23,40.5 z" />
    <path
       sodipodi:type="arc"
       id="path2467"
       style="fill:#000000;stroke:none"
       sodipodi:cx="24.5"
       sodipodi:cy="40.5"
       sodipodi:rx="0.5"
       sodipodi:ry="0.5"
       d="M 25,40.5 A 0.5,0.5 0 1 1 24,40.5 A 0.5,0.5 0 1 1 25,40.5 z" />
    <path
       sodipodi:type="arc"
       id="path2469"
       style="fill:#000000;stroke:none"
       sodipodi:cx="26.5"
       sodipodi:cy="40.5"
       sodipodi:rx="0.5"
       sodipodi:ry="0.5"
       d="M 27,40.5 A 0.5,0.5 0 1 1 26,40.5 A 0.5,0.5 0 1 1 27,40.5 z" />
    <path
       sodipodi:type="arc"
       id="path2471"
       style="fill:#000000;stroke:none"
       sodipodi:cx="28.5"
       sodipodi:cy="40.5"
       sodipodi:rx="0.5"
       sodipodi:ry="0.5"
       d="M 29,40.5 A 0.5,0.5 0 1 1 28,40.5 A 0.5,0.5 0 1 1 29,40.5 z" />
    <path
       sodipodi:type="arc"
       id="path2473"
       style="fill:#000000;stroke:none"
       sodipodi:cx="30.5"
       sodipodi:cy="40.5"
       sodipodi:rx="0.5"
       sodipodi:ry="0.5"
       d="M 31,40.5 A 0.5,0.5 0 1 1 30,40.5 A 0.5,0.5 0 1 1 31,40.5 z" />
    <path
       sodipodi:type="arc"
       id="path2475"
       style="fill:#000000;stroke:none"
       sodipodi:cx="32.5"
       sodipodi:cy="40.5"
       sodipodi:rx="0.5"
       sodipodi:ry="0.5"
       d="M 33,40.5 A 0.5,0.5 0 1 1 32,40.5 A 0.5,0.5 0 1 1 33,40.5 z" />
    <path
       sodipodi:type="arc"
       id="path2477"
       style="fill:#000000;stroke:none"
       sodipodi:cx="34.5"
       sodipodi:cy="40.5"
       sodipodi:rx="0.5"
       sodipodi:ry="0.5"
       d="M 35,40.5 A 0.5,0.5 0 1 1 34,40.5 A 0.5,0.5 0 1 1 35,40.5 z" />
    <path
       sodipodi:type="arc"
       id="path2479"
       style="fill:#000000;stroke:none"
       sodipodi:cx="36.5"
       sodipodi:cy="40.5"
       sodipodi:rx="0.5"
       sodipodi:ry="0.5"
       d="M 37,40.5 A 0.5,0.5 0 1 1 36,40.5 A 0.5,0.5 0 1 1 37,40.5 z" />
    <path
       sodipodi:type="arc"
       id="path2481"
       style="fill:#000000;stroke:none"
       sodipodi:cx="5.5"
       sodipodi:cy="42.5"
       sodipodi:rx="0.5"
       sodipodi:ry="0.5"
       d="M 6,42.5 A 0.5,0.5 0 1 1 5,42.5 A 0.5,0.5 0 1 1 6,42.5 z" />
    <path
       sodipodi:type="arc"
       id="path2483"
       style="fill:#000000;stroke:none"
       sodipodi:cx="7.5"
       sodipodi:cy="42.5"
       sodipodi:rx="0.5"
       sodipodi:ry="0.5"
       d="M 8,42.5 A 0.5,0.5 0 1 1 7,42.5 A 0.5,0.5 0 1 1 8,42.5 z" />
    <path
       sodipodi:type="arc"
       id="path2485"
       style="fill:#000000;stroke:none"
       sodipodi:cx="9.5"
       sodipodi:cy="42.5"
       sodipodi:rx="0.5"
       sodipodi:ry="0.5"
       d="M 10,42.5 A 0.5,0.5 0 1 1 9,42.5 A 0.5,0.5 0 1 1 10,42.5 z" />
    <path
       sodipodi:type="arc"
       id="path2487"
       style="fill:#000000;stroke:none"
       sodipodi:cx="11.5"
       sodipodi:cy="42.5"
       sodipodi:rx="0.5"
       sodipodi:ry="0.5"
       d="M 12,42.5 A 0.5,0.5 0 1 1 11,42.5 A 0.5,0.5 0 1 1 12,42.5 z" />
    <path
       sodipodi:type="arc"
       id="path2489"
       style="fill:#000000;stroke:none"
       sodipodi:cx="13.5"
       sodipodi:cy="42.5"
       sodipodi:rx="0.5"
       sodipodi:ry="0.5"
       d="M 14,42.5 A 0.5,0.5 0 1 1 13,42.5 A 0.5,0.5 0 1 1 14,42.5 z" />
    <path
       sodipodi:type="arc"
       id="path2491"
       style="fill:#000000;stroke:none"
       sodipodi:cx="15.5"
       sodipodi:cy="42.5"
       sodipodi:rx="0.5"
       sodipodi:ry="0.5"
       d="M 16,42.5 A 0.5,0.5 0 1 1 15,42.5 A 0.5,0.5 0 1 1 16,42.5 z" />
    <path
       sodipodi:type="arc"
       id="path2493"
       style="fill:#000000;stroke:none"
       sodipodi:cx="17.5"
       sodipodi:cy="42.5"
       sodipodi:rx="0.5"
       sodipodi:ry="0.5"
       d="M 18,42.5 A 0.5,0.5 0 1 1 17,42.5 A 0.5,0.5 0 1 1 18,42.5 z" />
    <path
       sodipodi:type="arc"
       id="path2495"
       style="fill:#000000;stroke:none"
       sodipodi:cx="19.5"
       sodipodi:cy="42.5"
       sodipodi:rx="0.5"
       sodipodi:ry="0.5"
       d="M 20,42.5 A 0.5,0.5 0 1 1 19,42.5 A 0.5,0.5 0 1 1 20,42.5 z" />
    <path
       sodipodi:type="arc"
       id="path2497"
       style="fill:#000000;stroke:none"
       sodipodi:cx="21.5"
       sodipodi:cy="42.5"
       sodipodi:rx="0.5"
       sodipodi:ry="0.5"
       d="M 22,42.5 A 0.5,0.5 0 1 1 21,42.5 A 0.5,0.5 0 1 1 22,42.5 z" />
    <path
       sodipodi:type="arc"
       id="path2499"
       style="fill:#000000;stroke:none"
       sodipodi:cx="23.5"
       sodipodi:cy="42.5"
       sodipodi:rx="0.5"
       sodipodi:ry="0.5"
       d="M 24,42.5 A 0.5,0.5 0 1 1 23,42.5 A 0.5,0.5 0 1 1 24,42.5 z" />
    <path
       sodipodi:type="arc"
       id="path2501"
       style="fill:#000000;stroke:none"
       sodipodi:cx="25.5"
       sodipodi:cy="42.5"
       sodipodi:rx="0.5"
       sodipodi:ry="0.5"
       d="M 26,42.5 A 0.5,0.5 0 1 1 25,42.5 A 0.5,0.5 0 1 1 26,42.5 z" />
    <path
       sodipodi:type="arc"
       id="path2503"
       style="fill:#000000;stroke:none"
       sodipodi:cx="27.5"
       sodipodi:cy="42.5"
       sodipodi:rx="0.5"
       sodipodi:ry="0.5"
       d="M 28,42.5 A 0.5,0.5 0 1 1 27,42.5 A 0.5,0.5 0 1 1 28,42.5 z" />
    <path
       sodipodi:type="arc"
       id="path2505"
       style="fill:#000000;stroke:none"
       sodipodi:cx="29.5"
       sodipodi:cy="42.5"
       sodipodi:rx="0.5"
       sodipodi:ry="0.5"
       d="M 30,42.5 A 0.5,0.5 0 1 1 29,42.5 A 0.5,0.5 0 1 1 30,42.5 z" />
    <path
       sodipodi:type="arc"
       id="path2507"
       style="fill:#000000;stroke:none"
       sodipodi:cx="31.5"
       sodipodi:cy="42.5"
       sodipodi:rx="0.5"
       sodipodi:ry="0.5"
       d="M 32,42.5 A 0.5,0.5 0 1 1 31,42.5 A 0.5,0.5 0 1 1 32,42.5 z" />
    <path
       sodipodi:type="arc"
       id="path2509"
       style="fill:#000000;stroke:none"
       sodipodi:cx="33.5"
       sodipodi:cy="42.5"
       sodipodi:rx="0.5"
       sodipodi:ry="0.5"
       d="M 34,42.5 A 0.5,0.5 0 1 1 33,42.5 A 0.5,0.5 0 1 1 34,42.5 z" />
    <path
       sodipodi:type="arc"
       id="path2511"
       style="fill:#000000;stroke:none"
       sodipodi:cx="35.5"
       sodipodi:cy="42.5"
       sodipodi:rx="0.5"
       sodipodi:ry="0.5"
       d="M 36,42.5 A 0.5,0.5 0 1 1 35,42.5 A 0.5,0.5 0 1 1 36,42.5 z" />
    <path
       sodipodi:type="arc"
       id="path2513"
       style="fill:#000000;stroke:none"
       sodipodi:cx="4.5"
       sodipodi:cy="44.5"
       sodipodi:rx="0.5"
       sodipodi:ry="0.5"
       d="M 5,44.5 A 0.5,0.5 0 1 1 4,44.5 A 0.5,0.5 0 1 1 5,44.5 z" />
    <path
       sodipodi:type="arc"
       id="path2517"
       style="fill:#000000;stroke:none"
       sodipodi:cx="5.5"
       sodipodi:cy="44.5"
       sodipodi:rx="0.5"
       sodipodi:ry="0.5"
       d="M 6,44.5 A 0.5,0.5 0 1 1 5,44.5 A 0.5,0.5 0 1 1 6,44.5 z" />
    <path
       sodipodi:type="arc"
       id="path2519"
       style="fill:#000000;stroke:none"
       sodipodi:cx="34.5"
       sodipodi:cy="44.5"
       sodipodi:rx="0.5"
       sodipodi:ry="0.5"
       d="M 35,44.5 A 0.5,0.5 0 1 1 34,44.5 A 0.5,0.5 0 1 1 35,44.5 z" />
    <path
       sodipodi:type="arc"
       id="path2521"
       style="fill:#000000;stroke:none"
       sodipodi:cx="35.5"
       sodipodi:cy="44.5"
       sodipodi:rx="0.5"
       sodipodi:ry="0.5"
       d="M 36,44.5 A 0.5,0.5 0 1 1 35,44.5 A 0.5,0.5 0 1 1 36,44.5 z" />
    <path
       sodipodi:type="arc"
       id="path2523"
       style="fill:#000000;stroke:none"
       sodipodi:cx="7.5"
       sodipodi:cy="44.5"
       sodipodi:rx="0.5"
       sodipodi:ry="0.5"
       d="M 8,44.5 A 0.5,0.5 0 1 1 7,44.5 A 0.5,0.5 0 1 1 8,44.5 z" />
    <path
       sodipodi:type="arc"
       id="path2529"
       style="fill:#000000;stroke:none"
       sodipodi:cx="32.5"
       sodipodi:cy="44.5"
       sodipodi:rx="0.5"
       sodipodi:ry="0.5"
       d="M 33,44.5 A 0.5,0.5 0 1 1 32,44.5 A 0.5,0.5 0 1 1 33,44.5 z" />
    <text
       xml:space="preserve"
       style="font-size:14px;font-style:normal;font-variant:normal;font-weight:normal;font-stretch:normal;text-align:start;line-height:125%;writing-mode:lr-tb;text-anchor:start;fill:#000000;fill-opacity:1;stroke:none;stroke-width:1px;stroke-linecap:butt;stroke-linejoin:miter;stroke-opacity:1;font-family:Serif;-inkscape-font-specification:Serif"
       x="9.3944197"
       y="17.392376"
       id="text2446"
       sodipodi:linespacing="125%"><tspan
         sodipodi:role="line"
         id="tspan2448"
         x="9.3944197"
         y="17.392376">X</tspan></text>
    <text
       xml:space="preserve"
       style="font-size:10px;font-style:normal;font-variant:normal;font-weight:normal;font-stretch:normal;text-align:start;line-height:125%;writing-mode:lr-tb;text-anchor:start;fill:#000000;fill-opacity:1;stroke:none;stroke-width:1px;stroke-linecap:butt;stroke-linejoin:miter;stroke-opacity:1;font-family:Bitstream Vera Sans;-inkscape-font-specification:Bitstream Vera Sans"
       x="9.2934036"
       y="27.796949"
       id="text2450"
       sodipodi:linespacing="125%"><tspan
         sodipodi:role="line"
         id="tspan2452"
         x="9.2934036"
         y="27.796949">TERM</tspan></text>
    <path
       style="fill:#ff0000;fill-opacity:1"
       d="M 9.5526798,17.051422 C 9.5526798,16.760008 9.5653522,16.752748 10.125718,16.723122 L 10.698756,16.692828 L 12.146023,14.580121 C 12.942019,13.418132 13.59329,12.429276 13.59329,12.382663 C 13.59329,12.336051 12.926887,11.29803 12.112394,10.075953 L 10.631497,7.8539929 L 10.092088,7.8539929 C 9.5600893,7.8539929 9.5526798,7.8498301 9.5526798,7.5509472 L 9.5526798,7.2479014 L 11.522477,7.2479014 L 13.492275,7.2479014 L 13.492275,7.5509472 C 13.492275,7.851415 13.487486,7.8539929 12.929284,7.8539929 C 12.50303,7.8539929 12.374226,7.8877371 12.398954,7.9929283 C 12.455968,8.2354558 14.44746,11.183296 14.552935,11.181287 C 14.63955,11.179635 16.714537,8.2039421 16.808942,7.9459956 C 16.827461,7.8953951 16.543357,7.8539929 16.177597,7.8539929 L 15.51258,7.8539929 L 15.51258,7.5509472 L 15.51258,7.2479014 L 17.128824,7.2479014 L 18.745068,7.2479014 L 18.745068,7.5509472 C 18.745068,7.8497129 18.737474,7.8539929 18.207323,7.8539929 L 17.66958,7.8539929 L 16.313288,9.8351718 C 15.567327,10.924818 14.968465,11.857001 14.982484,11.906687 C 14.996503,11.956372 15.719746,13.064945 16.58969,14.37018 L 18.171406,16.743335 L 18.710775,16.743335 C 19.242731,16.743335 19.250144,16.747501 19.250144,17.046381 L 19.250144,17.349427 L 17.280347,17.349427 L 15.310549,17.349427 L 15.310549,17.051203 C 15.310549,16.757404 15.319545,16.752529 15.916386,16.722902 L 16.522223,16.692828 L 15.292339,14.845609 C 14.300736,13.356273 14.038038,13.023568 13.936419,13.128349 C 13.867099,13.199826 13.281347,14.031076 12.634748,14.975568 L 11.459114,16.692828 L 12.122141,16.722696 C 12.782475,16.752445 12.785168,16.753778 12.785168,17.050997 L 12.785168,17.349427 L 11.168924,17.349427 L 9.5526798,17.349427 L 9.5526798,17.051422 z"
       id="path3393" />
    <path
       style="fill:#ff0000;fill-opacity:1"
       d="M 11.876031,24.52151 L 11.876031,21.289022 L 10.61334,21.289022 L 9.3506493,21.289022 L 9.3506493,20.935468 L 9.3506493,20.581915 L 12.381107,20.581915 L 15.411565,20.581915 L 15.411565,20.935468 L 15.411565,21.289022 L 14.098366,21.289022 L 12.785168,21.289022 L 12.785168,24.52151 L 12.785168,27.753998 L 12.330599,27.753998 L 11.876031,27.753998 L 11.876031,24.52151 z"
       id="path3395" />
    <path
       style="fill:#00ff00;fill-opacity:1"
       d="M 22.785678,24.167957 L 22.785678,20.581915 L 24.237699,20.581915 C 25.284391,20.581915 25.812305,20.625166 26.128859,20.736852 C 26.986665,21.039502 27.331365,21.583481 27.331365,22.634545 C 27.331365,23.39182 27.086011,23.849544 26.514671,24.158141 L 26.158801,24.350356 L 26.60914,24.81474 C 26.890696,25.105075 27.295682,25.742911 27.689694,26.516561 L 28.319907,27.753998 L 27.85089,27.752173 L 27.381872,27.750345 L 26.722104,26.466115 C 25.889339,24.845149 25.736952,24.723541 24.538507,24.723541 L 23.694815,24.723541 L 23.694815,26.238769 L 23.694815,27.753998 L 23.240247,27.753998 L 22.785678,27.753998 L 22.785678,24.167957 z M 25.829111,23.757187 C 26.370623,23.477159 26.578415,22.608342 26.262899,21.943439 C 26.031554,21.455918 25.598142,21.289022 24.563433,21.289022 L 23.694815,21.289022 L 23.694815,22.60222 L 23.694815,23.915418 L 24.608968,23.915418 C 25.241205,23.915418 25.617486,23.866621 25.82911,23.757186 L 25.829111,23.757187 z"
       id="path3397" />
    <path
       style="fill:#00ffff;fill-opacity:1"
       d="M 29.755731,24.167957 L 29.755731,20.581915 L 30.437584,20.582713 L 31.119437,20.583509 L 31.921757,22.729287 C 32.363036,23.909464 32.787969,25.032008 32.866057,25.22383 L 33.008035,25.572595 L 33.943184,23.102509 L 34.878334,20.632423 L 35.600028,20.602742 L 36.321722,20.573064 L 36.321722,24.16353 L 36.321722,27.753998 L 35.868572,27.753998 L 35.415422,27.753998 L 35.388749,24.546764 L 35.362077,21.339529 L 34.413357,23.839657 L 33.464638,26.339785 L 32.998361,26.339785 L 32.532085,26.339785 L 31.637103,23.940672 C 31.144865,22.621161 30.702013,21.498376 30.652989,21.445595 C 30.601342,21.389992 30.563853,22.69637 30.563853,24.551815 L 30.563853,27.753998 L 30.159792,27.753998 L 29.755731,27.753998 L 29.755731,24.167957 z"
       id="path3399" />
    <path
       style="fill:#ff0000;fill-opacity:1"
       d="M 16.421717,24.167957 L 16.421717,20.581915 L 18.69456,20.581915 L 20.967404,20.581915 L 20.967404,20.935468 L 20.967404,21.289022 L 19.149129,21.289022 L 17.330854,21.289022 L 17.330854,22.40019 L 17.330854,23.511357 L 19.048114,23.511357 L 20.765373,23.511357 L 20.765373,23.915418 L 20.765373,24.319479 L 19.048114,24.319479 L 17.330854,24.319479 L 17.330854,25.683185 L 17.330854,27.046891 L 19.199637,27.046891 L 21.068419,27.046891 L 21.068419,27.400445 L 21.068419,27.753998 L 18.745068,27.753998 L 16.421717,27.753998 L 16.421717,24.167957 z"
       id="path3401" />
    <path
       style="fill:#ff00ff;fill-opacity:1"
       d="M 11.876031,24.52151 L 11.876031,21.289022 L 10.61334,21.289022 L 9.3506493,21.289022 L 9.3506493,20.935468 L 9.3506493,20.581915 L 12.381107,20.581915 L 15.411565,20.581915 L 15.411565,20.935468 L 15.411565,21.289022 L 14.098366,21.289022 L 12.785168,21.289022 L 12.785168,24.52151 L 12.785168,27.753998 L 12.330599,27.753998 L 11.876031,27.753998 L 11.876031,24.52151 z"
       id="path3403" />
    <path
       style="fill:#ffffff;fill-opacity:1"
       d="M 6.3400078,32.572667 L 6.0171459,32.239559 L 6.0171459,17.490703 L 6.0171459,2.7418463 L 6.3502548,2.4189853 L 6.6833627,2.0961234 L 22.997956,2.0961234 L 39.312549,2.0961234 L 39.63541,2.4292323 L 39.958272,2.7623402 L 39.958272,17.511197 L 39.958272,32.260053 L 39.625163,32.582914 L 39.292055,32.905776 L 22.977462,32.905776 L 6.6628687,32.905776 L 6.3400078,32.572667 z M 37.911135,30.861864 L 39.049134,29.727091 L 39.049134,17.501017 L 39.049134,5.2749472 L 37.860689,4.0895968 L 36.672242,2.9042455 L 22.995552,2.9042455 L 9.3188628,2.9042455 L 8.1225745,4.0857997 L 6.9262832,5.2673579 L 6.9262832,17.493995 L 6.9262832,29.720636 L 8.0610582,30.858639 L 9.1958313,31.996639 L 22.984481,31.996639 L 36.773128,31.996639 L 37.911135,30.861864 z"
       id="path3407" />
    <path
       style="fill:#ffffff;fill-opacity:1"
       d="M 41.074933,17.526204 C 41.07191,9.539685 41.103993,3.0052607 41.146225,3.0052607 C 41.188457,3.0052607 42.052137,3.835297 43.065515,4.8497861 L 44.908019,6.6943116 L 44.902526,15.582656 L 44.897039,24.471002 L 42.988729,28.259074 L 41.08042,32.047146 L 41.074933,17.526204 z"
       id="path3409" />
    <path
       style="fill:#ffffff;fill-opacity:1"
       d="M 1.9765357,45.766718 C 1.9765357,45.673207 3.0295631,43.703259 4.3165975,41.389058 L 6.6566603,37.181421 L 15.049469,37.114476 C 24.958128,37.035444 40.059287,37.02573 40.059287,37.09839 C 40.059287,37.126434 39.127421,39.012678 37.988474,41.290042 C 36.849527,43.567407 35.917661,45.544564 35.917661,45.683725 L 35.917661,45.936744 L 18.947098,45.936744 C 3.1087672,45.936744 1.9765357,45.9254 1.9765357,45.76672 L 1.9765357,45.766718 z M 5.8584065,44.86887 C 5.945714,44.781563 6.0171459,44.602312 6.0171459,44.470536 C 6.0171459,44.114362 5.6563184,43.916439 5.0069933,43.916439 C 4.3300184,43.916439 3.9968408,44.111571 3.9968408,44.508055 C 3.9968408,44.936905 4.1666414,45.027607 4.9694732,45.027607 C 5.4986012,45.027607 5.7433804,44.983896 5.8584075,44.868868 L 5.8584065,44.86887 z M 32.859151,44.901338 C 33.089277,44.603933 33.084246,44.407344 32.84027,44.163368 L 32.593338,43.916439 L 20.069436,43.916439 C 12.658436,43.916439 7.4453804,43.954515 7.3002204,44.009704 C 6.9886358,44.128169 6.8869953,44.498032 7.0835801,44.798058 L 7.2339868,45.027607 L 19.997718,45.027607 C 30.089253,45.027607 32.781905,45.001171 32.859154,44.901338 L 32.859151,44.901338 z M 35.85994,44.86887 C 35.947245,44.781563 36.018677,44.602312 36.018677,44.470536 C 36.018677,44.114362 35.657849,43.916439 35.008524,43.916439 C 34.331549,43.916439 33.998371,44.111571 33.998371,44.508055 C 33.998371,44.936905 34.168172,45.027607 34.971004,45.027607 C 35.500135,45.027607 35.744911,44.983896 35.859938,44.868868 L 35.85994,44.86887 z M 5.8959266,42.886082 C 5.9625976,42.819413 6.0171459,42.646677 6.0171459,42.502225 C 6.0171459,42.357774 5.9625976,42.185037 5.8959276,42.118367 C 5.8292585,42.051696 5.6565214,41.997149 5.5120696,41.997149 C 5.3676178,41.997149 5.1948817,42.051697 5.1282116,42.118367 C 5.0615406,42.185036 5.0069933,42.357774 5.0069933,42.502225 C 5.0069933,42.646677 5.0615416,42.819413 5.1282116,42.886083 C 5.1948807,42.952754 5.3676178,43.007302 5.5120696,43.007302 C 5.6565214,43.007302 5.8292575,42.952753 5.8959276,42.886083 L 5.8959266,42.886082 z M 7.9548154,42.754763 C 8.1310749,42.367916 7.9265372,41.997149 7.5368689,41.997149 C 7.3252631,41.997149 7.1841206,42.073254 7.0685167,42.249687 C 6.9152341,42.483625 6.9152351,42.520825 7.0685167,42.754763 C 7.1841196,42.931197 7.3252631,43.007302 7.5368689,43.007302 C 7.7619167,43.007302 7.8693212,42.942404 7.9548154,42.754763 z M 9.8990167,42.848565 C 10.223931,42.52365 9.9785278,41.997149 9.5021722,41.997149 C 9.2168869,41.997149 8.9465883,42.242875 8.9465883,42.502225 C 8.9465883,42.761576 9.2168869,43.007302 9.5021722,43.007302 C 9.6331314,43.007302 9.8117122,42.93587 9.8990177,42.848563 L 9.8990167,42.848565 z M 11.935827,42.754763 C 12.089109,42.520825 12.089109,42.483625 11.935828,42.249687 C 11.557166,41.671775 10.762437,42.124668 11.049529,42.754763 C 11.135023,42.942404 11.242428,43.007302 11.467475,43.007302 C 11.679081,43.007302 11.820224,42.931197 11.935828,42.754763 L 11.935827,42.754763 z M 13.876132,42.886082 C 13.942803,42.819413 13.997351,42.646677 13.997351,42.502225 C 13.997351,42.357774 13.942803,42.185037 13.876133,42.118367 C 13.809464,42.051696 13.636727,41.997149 13.492275,41.997149 C 13.347823,41.997149 13.175087,42.051697 13.108417,42.118367 C 13.041746,42.185036 12.987198,42.357774 12.987198,42.502225 C 12.987198,42.646677 13.041747,42.819413 13.108417,42.886083 C 13.175086,42.952754 13.347823,43.007302 13.492275,43.007302 C 13.636727,43.007302 13.809463,42.952753 13.876133,42.886083 L 13.876132,42.886082 z M 15.896437,42.886082 C 15.963108,42.819413 16.017656,42.646677 16.017656,42.502225 C 16.017656,42.357774 15.963108,42.185037 15.896438,42.118367 C 15.829769,42.051696 15.657032,41.997149 15.51258,41.997149 C 15.368128,41.997149 15.195392,42.051697 15.128722,42.118367 C 15.062051,42.185036 15.007504,42.357774 15.007504,42.502225 C 15.007504,42.646677 15.062052,42.819413 15.128722,42.886083 C 15.195391,42.952754 15.368128,43.007302 15.51258,43.007302 C 15.657032,43.007302 15.829768,42.952753 15.896438,42.886083 L 15.896437,42.886082 z M 17.955326,42.754763 C 18.131585,42.367916 17.927047,41.997149 17.537379,41.997149 C 17.325773,41.997149 17.184631,42.073254 17.069027,42.249687 C 16.915744,42.483625 16.915745,42.520825 17.069027,42.754763 C 17.18463,42.931197 17.325773,43.007302 17.537379,43.007302 C 17.762427,43.007302 17.869831,42.942404 17.955326,42.754763 z M 19.899527,42.848565 C 20.224441,42.52365 19.979038,41.997149 19.502682,41.997149 C 19.217397,41.997149 18.947098,42.242875 18.947098,42.502225 C 18.947098,42.761576 19.217397,43.007302 19.502682,43.007302 C 19.633642,43.007302 19.812222,42.93587 19.899528,42.848563 L 19.899527,42.848565 z M 21.936337,42.754763 C 22.089619,42.520825 22.089619,42.483625 21.936338,42.249687 C 21.557676,41.671775 20.762948,42.124668 21.050039,42.754763 C 21.135533,42.942404 21.242938,43.007302 21.467986,43.007302 C 21.679591,43.007302 21.820734,42.931197 21.936338,42.754763 L 21.936337,42.754763 z M 23.876642,42.886082 C 23.943313,42.819413 23.997861,42.646677 23.997861,42.502225 C 23.997861,42.357774 23.943313,42.185037 23.876643,42.118367 C 23.809974,42.051696 23.637237,41.997149 23.492785,41.997149 C 23.348333,41.997149 23.175597,42.051697 23.108927,42.118367 C 23.042256,42.185036 22.987709,42.357774 22.987709,42.502225 C 22.987709,42.646677 23.042257,42.819413 23.108927,42.886083 C 23.175596,42.952754 23.348333,43.007302 23.492785,43.007302 C 23.637237,43.007302 23.809973,42.952753 23.876643,42.886083 L 23.876642,42.886082 z M 25.896947,42.886082 C 25.963618,42.819413 26.018166,42.646677 26.018166,42.502225 C 26.018166,42.357774 25.963618,42.185037 25.896948,42.118367 C 25.830279,42.051696 25.657542,41.997149 25.51309,41.997149 C 25.368638,41.997149 25.195902,42.051697 25.129232,42.118367 C 25.062561,42.185036 25.008014,42.357774 25.008014,42.502225 C 25.008014,42.646677 25.062562,42.819413 25.129232,42.886083 C 25.195901,42.952754 25.368638,43.007302 25.51309,43.007302 C 25.657542,43.007302 25.830278,42.952753 25.896948,42.886083 L 25.896947,42.886082 z M 27.879732,42.848565 C 27.96704,42.761258 28.038471,42.621898 28.038471,42.538877 C 28.038471,41.983356 27.373988,41.785036 27.069537,42.249687 C 26.916255,42.483625 26.916256,42.520825 27.069537,42.754763 C 27.259791,43.045129 27.639237,43.089059 27.879733,42.848563 L 27.879732,42.848565 z M 29.900037,42.848565 C 30.224952,42.52365 29.979548,41.997149 29.503193,41.997149 C 29.217907,41.997149 28.947609,42.242875 28.947609,42.502225 C 28.947609,42.761576 29.217907,43.007302 29.503193,43.007302 C 29.634152,43.007302 29.812733,42.93587 29.900038,42.848563 L 29.900037,42.848565 z M 31.93685,42.754763 C 32.09013,42.520825 32.09013,42.483625 31.936848,42.249687 C 31.558183,41.671775 30.763458,42.124668 31.050549,42.754763 C 31.136044,42.942404 31.243448,43.007302 31.468496,43.007302 C 31.680102,43.007302 31.821244,42.931197 31.936848,42.754763 L 31.93685,42.754763 z M 33.877152,42.886082 C 33.943823,42.819413 33.998371,42.646677 33.998371,42.502225 C 33.998371,42.357774 33.943823,42.185037 33.877153,42.118367 C 33.810484,42.051696 33.637747,41.997149 33.493295,41.997149 C 33.348843,41.997149 33.176107,42.051697 33.109437,42.118367 C 33.042766,42.185036 32.988219,42.357774 32.988219,42.502225 C 32.988219,42.646677 33.042767,42.819413 33.109437,42.886083 C 33.176106,42.952754 33.348843,43.007302 33.493295,43.007302 C 33.637747,43.007302 33.810483,42.952753 33.877153,42.886083 L 33.877152,42.886082 z M 35.897457,42.886082 C 35.964128,42.819413 36.018677,42.646677 36.018677,42.502225 C 36.018677,42.357774 35.964128,42.185037 35.897458,42.118367 C 35.830789,42.051696 35.658052,41.997149 35.5136,41.997149 C 35.369148,41.997149 35.196412,42.051697 35.129742,42.118367 C 35.063071,42.185036 35.008524,42.357774 35.008524,42.502225 C 35.008524,42.646677 35.063072,42.819413 35.129742,42.886083 C 35.196411,42.952754 35.369148,43.007302 35.5136,43.007302 C 35.658052,43.007302 35.830788,42.952753 35.897458,42.886083 L 35.897457,42.886082 z M 6.9615749,40.765563 C 7.1231902,40.509348 6.9522916,40.088236 6.6565714,40.014016 C 6.3396229,39.934466 6.118447,40.053621 6.0028098,40.366218 C 5.8817945,40.693351 6.3107912,41.122347 6.637924,41.001333 C 6.7634193,40.95491 6.9090611,40.848814 6.9615729,40.765566 L 6.9615749,40.765563 z M 8.9213345,40.802051 C 9.0928472,40.589183 9.0800638,40.326781 8.8888651,40.135582 C 8.6502237,39.896942 8.2689891,39.938917 8.0819098,40.224436 C 7.6955487,40.814098 8.4778805,41.352428 8.9213345,40.802051 z M 10.989776,40.724575 C 11.224488,40.20944 10.517742,39.733319 10.115479,40.135582 C 9.9242664,40.326796 9.9115708,40.588383 10.08301,40.804547 C 10.34917,41.140141 10.819323,41.098679 10.989775,40.724578 L 10.989776,40.724575 z M 12.978344,40.700493 C 13.121663,40.432702 12.889479,40.034193 12.568243,39.996614 C 12.001613,39.930323 11.76444,40.700303 12.273694,40.952864 C 12.551306,41.090544 12.82136,40.993824 12.978345,40.700492 L 12.978344,40.700493 z M 16.90154,40.857928 C 17.077157,40.722045 17.059349,40.32586 16.86907,40.135582 C 16.480749,39.747263 15.75856,40.199826 16.011715,40.672851 C 16.217786,41.057893 16.553002,41.127619 16.90154,40.857931 L 16.90154,40.857928 z M 18.921845,40.802051 C 19.350578,40.269945 18.552246,39.666407 18.092153,40.174805 C 17.862786,40.428251 17.958051,40.862774 18.268268,40.978096 C 18.532749,41.076417 18.747358,41.018609 18.921845,40.802051 z M 20.990287,40.724575 C 21.224999,40.20944 20.518252,39.733319 20.115989,40.135582 C 19.924777,40.326796 19.912081,40.588383 20.08352,40.804547 C 20.34968,41.140141 20.819833,41.098679 20.990286,40.724578 L 20.990287,40.724575 z M 22.978855,40.700493 C 23.122173,40.432702 22.88999,40.034193 22.568753,39.996614 C 22.002123,39.930323 21.76495,40.700303 22.274205,40.952864 C 22.551816,41.090544 22.82187,40.993824 22.978856,40.700492 L 22.978855,40.700493 z M 26.90205,40.857928 C 27.077667,40.722045 27.059859,40.32586 26.86958,40.135582 C 26.48126,39.747263 25.75907,40.199826 26.012226,40.672851 C 26.218296,41.057893 26.553512,41.127619 26.90205,40.857931 L 26.90205,40.857928 z M 28.922355,40.802051 C 29.351088,40.269945 28.552756,39.666407 28.092663,40.174805 C 27.863296,40.428251 27.958561,40.862774 28.268778,40.978096 C 28.533259,41.076417 28.747868,41.018609 28.922355,40.802051 z M 30.990794,40.724575 C 31.225509,40.20944 30.518763,39.733319 30.1165,40.135582 C 29.925287,40.326796 29.912591,40.588383 30.08403,40.804547 C 30.35019,41.140141 30.820344,41.098679 30.990796,40.724578 L 30.990794,40.724575 z M 32.979365,40.700493 C 33.122683,40.432702 32.8905,40.034193 32.569263,39.996614 C 32.002633,39.930323 31.765461,40.700303 32.274715,40.952864 C 32.552329,41.090544 32.82238,40.993824 32.979366,40.700492 L 32.979365,40.700493 z M 36.90256,40.857928 C 37.078177,40.722045 37.060369,40.32586 36.870091,40.135582 C 36.481767,39.747263 35.759581,40.199826 36.012736,40.672851 C 36.218809,41.057893 36.554022,41.127619 36.90256,40.857931 L 36.90256,40.857928 z M 14.886284,40.865777 C 14.952955,40.799108 15.007504,40.626372 15.007504,40.48192 C 15.007504,40.337468 14.952955,40.164732 14.886285,40.098062 C 14.819616,40.031391 14.646879,39.976844 14.502427,39.976844 C 14.357975,39.976844 14.185239,40.031392 14.118569,40.098062 C 14.051898,40.164731 13.997351,40.337468 13.997351,40.48192 C 13.997351,40.626372 14.051899,40.799108 14.118569,40.865778 C 14.185238,40.932449 14.357975,40.986997 14.502427,40.986997 C 14.646879,40.986997 14.819615,40.932448 14.886285,40.865778 L 14.886284,40.865777 z M 24.886794,40.865777 C 24.953466,40.799108 25.008014,40.626372 25.008014,40.48192 C 25.008014,40.337468 24.953466,40.164732 24.886795,40.098062 C 24.820126,40.031391 24.647389,39.976844 24.502938,39.976844 C 24.358486,39.976844 24.18575,40.031392 24.11908,40.098062 C 24.052408,40.164731 23.997861,40.337468 23.997861,40.48192 C 23.997861,40.626372 24.052409,40.799108 24.11908,40.865778 C 24.185749,40.932449 24.358486,40.986997 24.502938,40.986997 C 24.647389,40.986997 24.820125,40.932448 24.886795,40.865778 L 24.886794,40.865777 z M 34.887305,40.865777 C 34.953976,40.799108 35.008524,40.626372 35.008524,40.48192 C 35.008524,40.337468 34.953976,40.164732 34.887306,40.098062 C 34.820637,40.031391 34.6479,39.976844 34.503448,39.976844 C 34.358996,39.976844 34.18626,40.031392 34.11959,40.098062 C 34.052919,40.164731 33.998371,40.337468 33.998371,40.48192 C 33.998371,40.626372 34.05292,40.799108 34.11959,40.865778 C 34.186259,40.932449 34.358996,40.986997 34.503448,40.986997 C 34.6479,40.986997 34.820636,40.932448 34.887306,40.865778 L 34.887305,40.865777 z M 7.8129446,38.910456 C 8.0787925,38.724249 8.1030695,38.398508 7.8702717,38.14127 C 7.6429753,37.890109 7.2742565,37.908751 7.0835336,38.181046 C 6.8757079,38.477757 6.885178,38.622541 7.1283137,38.865676 C 7.3714493,39.108812 7.5162304,39.118282 7.8129436,38.910456 L 7.8129446,38.910456 z M 9.8557256,38.865676 C 9.9668423,38.754559 10.057756,38.605575 10.057756,38.5346 C 10.057756,38.297866 9.745924,37.956539 9.5296524,37.956539 C 9.2582143,37.956539 8.9465883,38.23485 8.9465883,38.477272 C 8.9465883,38.701623 9.2910644,39.067707 9.5021722,39.067707 C 9.5855098,39.067707 9.7446088,38.976793 9.8557256,38.865676 z M 11.723984,39.003426 C 12.001451,38.896948 12.108151,38.472075 11.926894,38.195442 C 11.744306,37.91678 11.414053,37.886224 11.151624,38.123718 C 10.900464,38.351018 10.919105,38.719733 11.191401,38.910456 C 11.44323,39.086843 11.48678,39.094445 11.723985,39.003423 L 11.723984,39.003426 z M 13.81262,38.900529 C 14.191192,38.557925 13.96376,37.956539 13.455623,37.956539 C 13.009424,37.956539 12.833283,38.645398 13.211706,38.910456 C 13.495356,39.109131 13.583729,39.107671 13.81262,38.900527 L 13.81262,38.900529 z M 15.79315,38.910456 C 16.171572,38.645398 15.99543,37.956539 15.549231,37.956539 C 15.054644,37.956539 14.813499,38.556225 15.166242,38.908968 C 15.365971,39.108697 15.50963,39.10904 15.793149,38.910456 L 15.79315,38.910456 z M 17.813455,38.910456 C 18.079303,38.724249 18.10358,38.398508 17.870782,38.14127 C 17.643486,37.890109 17.274767,37.908751 17.084044,38.181046 C 16.876218,38.477757 16.885688,38.622541 17.128824,38.865676 C 17.37196,39.108812 17.516741,39.118282 17.813454,38.910456 L 17.813455,38.910456 z M 19.856236,38.865676 C 19.967353,38.754559 20.058266,38.605575 20.058266,38.5346 C 20.058266,38.297866 19.746434,37.956539 19.530163,37.956539 C 19.258724,37.956539 18.947098,38.23485 18.947098,38.477272 C 18.947098,38.701623 19.291575,39.067707 19.502682,39.067707 C 19.58602,39.067707 19.745119,38.976793 19.856236,38.865676 z M 21.724494,39.003426 C 22.001961,38.896948 22.108661,38.472075 21.927404,38.195442 C 21.744816,37.91678 21.414563,37.886224 21.152134,38.123718 C 20.900974,38.351018 20.919615,38.719733 21.191911,38.910456 C 21.44374,39.086843 21.487291,39.094445 21.724495,39.003423 L 21.724494,39.003426 z M 23.813131,38.900529 C 24.191702,38.557925 23.964271,37.956539 23.456134,37.956539 C 23.009934,37.956539 22.833793,38.645398 23.212216,38.910456 C 23.495866,39.109131 23.584239,39.107671 23.813131,38.900527 L 23.813131,38.900529 z M 25.79366,38.910456 C 26.172082,38.645398 25.99594,37.956539 25.549741,37.956539 C 25.055155,37.956539 24.814009,38.556225 25.166752,38.908968 C 25.366482,39.108697 25.51014,39.10904 25.793659,38.910456 L 25.79366,38.910456 z M 27.813965,38.910456 C 28.079813,38.724249 28.10409,38.398508 27.871292,38.14127 C 27.643996,37.890109 27.275277,37.908751 27.084554,38.181046 C 26.876728,38.477757 26.886199,38.622541 27.129334,38.865676 C 27.37247,39.108812 27.517251,39.118282 27.813964,38.910456 L 27.813965,38.910456 z M 29.856746,38.865676 C 29.967863,38.754559 30.058777,38.605575 30.058777,38.5346 C 30.058777,38.297866 29.746944,37.956539 29.530673,37.956539 C 29.259235,37.956539 28.947609,38.23485 28.947609,38.477272 C 28.947609,38.701623 29.292085,39.067707 29.503193,39.067707 C 29.58653,39.067707 29.745629,38.976793 29.856746,38.865676 z M 31.819866,38.933558 C 32.181699,38.668979 31.980787,37.956539 31.544337,37.956539 C 31.024913,37.956539 30.779656,38.621344 31.192421,38.910456 C 31.466768,39.102617 31.58282,39.106891 31.819863,38.933559 L 31.819866,38.933558 z M 33.813641,38.900529 C 34.192213,38.557925 33.964781,37.956539 33.456644,37.956539 C 33.010447,37.956539 32.834303,38.645398 33.212726,38.910456 C 33.496373,39.109131 33.584749,39.107671 33.813641,38.900527 L 33.813641,38.900529 z M 35.794167,38.910456 C 36.172592,38.645398 35.99645,37.956539 35.550252,37.956539 C 35.055662,37.956539 34.814519,38.556225 35.167262,38.908968 C 35.366995,39.108697 35.510651,39.10904 35.794169,38.910456 L 35.794167,38.910456 z M 37.814472,38.910456 C 38.080323,38.724249 38.1046,38.398508 37.871802,38.14127 C 37.644503,37.890109 37.275787,37.908751 37.085064,38.181046 C 36.877239,38.477757 36.886709,38.622541 37.129844,38.865676 C 37.37298,39.108812 37.517761,39.118282 37.814474,38.910456 L 37.814472,38.910456 z"
       id="path3411" />
    <path
       style="fill:#ffffff;fill-opacity:1"
       d="M 37.012075,45.803409 C 37.013829,45.652315 37.232293,45.198361 39.010105,41.651623 L 41.006166,37.66948 L 41.008134,39.937464 L 41.010105,42.205448 L 39.126052,44.08925 C 37.411623,45.803448 37.231558,45.973052 37.126051,45.973052 C 37.011262,45.973052 37.010124,45.971358 37.012075,45.803409 L 37.012075,45.803409 z"
       id="path3421" />
    <path
       style="fill:#ffffff;fill-opacity:1"
       d="M 8.9036935,30.123613 L 8.072549,29.288122 L 8.072549,17.469081 L 8.072549,5.6500369 L 8.8576527,4.8695364 L 9.6427554,4.089039 L 22.976763,4.089039 L 36.310777,4.089039 L 37.14192,4.9245261 L 37.973064,5.7600112 L 37.973064,17.528409 L 37.973064,29.296809 L 37.13758,30.127952 L 36.302089,30.959097 L 23.018466,30.959097 L 9.7348399,30.959097 L 8.9036935,30.123613 z M 12.921281,24.595136 L 12.921281,21.362648 L 14.183972,21.362648 L 15.446663,21.362648 L 15.446663,20.908079 L 15.446663,20.45351 L 12.31519,20.45351 L 9.1837168,20.45351 L 9.1837168,20.908079 L 9.1837168,21.362648 L 10.496915,21.362648 L 11.810113,21.362648 L 11.810113,24.595136 L 11.810113,27.827624 L 12.365697,27.827624 L 12.921281,27.827624 L 12.921281,24.595136 z M 21.103517,27.373055 L 21.103517,26.918487 L 19.285242,26.918487 L 17.466968,26.918487 L 17.466968,25.655796 L 17.466968,24.393105 L 19.184227,24.393105 L 20.901486,24.393105 L 20.901486,23.938537 L 20.901486,23.483968 L 19.184227,23.483968 L 17.466968,23.483968 L 17.466968,22.423308 L 17.466968,21.362648 L 19.234735,21.362648 L 21.002502,21.362648 L 21.002502,20.908079 L 21.002502,20.45351 L 18.679151,20.45351 L 16.3558,20.45351 L 16.3558,24.140567 L 16.3558,27.827624 L 18.729658,27.827624 L 21.103517,27.827624 L 21.103517,27.373055 z M 23.729914,26.312395 L 23.729914,24.797166 L 24.523096,24.797166 C 25.663988,24.797166 25.831067,24.933657 26.656186,26.539741 L 27.315955,27.823974 L 27.846285,27.825799 C 28.170498,27.826915 28.376615,27.783786 28.376615,27.714832 C 28.376615,27.457043 27.087604,25.13351 26.760953,24.802487 L 26.406818,24.443613 L 26.877669,23.989044 C 27.263781,23.616282 27.361286,23.448125 27.419467,23.054653 C 27.582244,21.953821 27.237551,21.171839 26.406671,20.756985 C 25.945233,20.526592 25.764707,20.501753 24.310751,20.468609 L 22.719761,20.432342 L 22.719761,24.129984 L 22.719761,27.827624 L 23.224837,27.827624 L 23.729914,27.827624 L 23.729914,26.312395 z M 30.723716,24.846974 L 30.750474,21.866325 L 31.606107,24.144245 L 32.46174,26.422165 L 33.011674,26.392534 L 33.561607,26.362903 L 34.428887,24.043436 L 35.29616,21.723969 L 35.322894,24.775796 L 35.349634,27.827624 L 35.853224,27.827624 L 36.35682,27.827624 L 36.35682,24.136319 L 36.35682,20.445011 L 35.591289,20.474516 L 34.825758,20.504018 L 33.934982,22.859013 C 33.445058,24.15426 33.028143,25.229958 33.008509,25.249454 C 32.988873,25.26895 32.567742,24.197838 32.07266,22.869205 L 31.17251,20.45351 L 30.380656,20.45351 L 29.588798,20.45351 L 29.588798,24.140567 L 29.588798,27.827624 L 30.142878,27.827624 L 30.696961,27.827624 L 30.723716,24.846974 z M 12.921281,17.018992 L 12.921281,16.614931 L 12.31519,16.614931 C 11.981839,16.614931 11.709098,16.590269 11.709098,16.560127 C 11.709098,16.407716 13.979429,13.198151 14.054445,13.244513 C 14.102608,13.274278 14.640779,14.044801 15.250383,14.956782 L 16.358754,16.614931 L 15.801693,16.614931 L 15.244632,16.614931 L 15.244632,17.018992 L 15.244632,17.423053 L 17.321542,17.423053 L 19.398453,17.423053 L 19.367101,17.044245 L 19.33575,16.665438 L 18.768029,16.635536 L 18.200308,16.60563 L 16.618336,14.232092 L 15.036362,11.858555 L 16.377934,9.8963555 L 17.719506,7.9341544 L 18.300344,7.9308866 L 18.881181,7.9276187 L 18.881181,7.5235577 L 18.881181,7.1194967 L 17.163922,7.1194967 L 15.446663,7.1194967 L 15.446663,7.5235577 L 15.446663,7.9276187 L 16.052754,7.9276187 C 16.386104,7.9276187 16.658846,7.9529028 16.658846,7.9838054 C 16.658846,8.0746262 14.602817,11.059346 14.542237,11.056468 C 14.511867,11.055026 14.020942,10.350444 13.451294,9.4907318 L 12.41557,7.9276187 L 13.021979,7.9276187 L 13.628388,7.9276187 L 13.628388,7.5235577 L 13.628388,7.1194967 L 11.557575,7.1194967 L 9.4867626,7.1194967 L 9.4867626,7.5235577 L 9.4867626,7.9276187 L 10.026171,7.9276187 L 10.56558,7.9276187 L 12.050145,10.155081 L 13.53471,12.382543 L 12.091574,14.492643 L 10.648438,16.602741 L 10.042346,16.63409 L 9.436255,16.665438 L 9.4049039,17.044245 L 9.3735518,17.423053 L 11.147417,17.423053 L 12.921281,17.423053 L 12.921281,17.018992 z"
       id="path3423" />
    <path
       style="fill:#ffffff"
       d="m 23.713837,22.627229 0,-1.285714 0.723214,6.2e-4 c 0.944496,8.1e-4 1.242652,0.06124 1.544643,0.313058 0.272931,0.227587 0.390803,0.566409 0.367912,1.057553 -0.02478,0.531572 -0.222549,0.851167 -0.643679,1.040159 -0.187062,0.08395 -0.295146,0.104658 -0.670065,0.128388 -0.245863,0.01556 -0.6439,0.02905 -0.884525,0.02997 l -0.4375,0.0017 0,-1.285715 z"
       id="path3065"
       inkscape:connector-curvature="0" />
    <path
       style="fill:#333333"
       d="m 8.9004797,30.080096 -0.7937855,-0.825705 0,-11.800513 0,-11.8005136 0.7690236,-0.766639 0.7690235,-0.766639 13.3213787,0 13.321379,0 0.838169,0.8403585 0.838169,0.8403585 0,11.7121406 0,11.71214 -0.838169,0.840358 -0.838169,0.840359 -13.296617,0 -13.2966167,0 -0.7937856,-0.825705 z m 4.0633573,-5.46001 0,-3.214285 1.25,0 1.25,0 0,-0.5 0,-0.5 -3.142857,0 -3.1428572,0 0,0.5 0,0.5 1.2857142,0 1.285714,0 0,3.214285 0,3.214286 0.607143,0 0.607143,0 0,-3.214286 z m 8.142857,2.75 0,-0.464285 -1.785714,0 -1.785714,0 0,-1.25 0,-1.25 1.714285,0 1.714286,0 0,-0.464286 0,-0.464286 -1.714286,0 -1.714285,0 0,-1.035714 0,-1.035714 1.75,0 1.75,0 0,-0.5 0,-0.5 -2.357143,0 -2.357143,0 0,3.714285 0,3.714286 2.392857,0 2.392857,0 0,-0.464286 z m 2.642857,-1.035714 0,-1.5 0.696429,0.0016 c 0.837113,0.0019 1.194754,0.134052 1.495593,0.552695 0.110459,0.153715 0.457978,0.766825 0.772264,1.362468 l 0.571429,1.082987 0.520098,1.43e-4 c 0.420686,1.43e-4 0.528877,-0.02273 0.566018,-0.119521 0.08018,-0.208956 -1.118778,-2.397457 -1.635786,-2.985851 l -0.263955,-0.300401 0.361473,-0.350614 c 0.491874,-0.477098 0.627208,-0.791773 0.629155,-1.462891 0.0028,-0.955556 -0.344837,-1.558349 -1.104579,-1.91547 -0.387934,-0.18235 -1.42584,-0.287547 -2.875996,-0.291495 l -0.803571,-0.0022 0,3.714285 0,3.714286 0.535714,0 0.535714,0 0,-1.5 z m 7.003287,-1.410714 0.0033,-2.910714 0.830171,2.214285 c 0.456594,1.217857 0.832972,2.219821 0.836395,2.226586 0.0034,0.0068 0.269635,-0.0058 0.591584,-0.02782 l 0.585361,-0.04012 0.807101,-2.170289 0.807101,-2.170288 0.04426,1.340967 c 0.02434,0.737533 0.04845,2.040075 0.05357,2.89454 l 0.0093,1.553571 0.535714,0 0.535715,0 0,-3.723475 0,-3.723476 -0.803572,0.05167 c -0.441964,0.02842 -0.805512,0.05666 -0.807885,0.06276 -0.0024,0.0061 -0.351676,0.924894 -0.77623,2.041766 -0.424554,1.116871 -0.825993,2.158004 -0.892087,2.313628 l -0.120169,0.282951 -0.370334,-0.956485 c -0.203683,-0.526067 -0.605043,-1.58327 -0.891911,-2.349342 l -0.521578,-1.392857 -0.836689,-0.02012 -0.836688,-0.02012 0,3.716552 0,3.716553 0.607143,0 0.607142,0 0.0033,-2.910714 1e-6,0 z m -17.789001,-7.910714 0,-0.464286 -0.571428,0 c -0.314286,0 -0.571429,-0.02807 -0.571429,-0.06237 0,-0.13112 1.683948,-2.548552 2.056438,-2.952169 l 0.17822,-0.193111 0.1216,0.157397 c 0.06688,0.08657 0.562153,0.800255 1.100607,1.585969 l 0.979006,1.428572 -0.521507,0.03571 -0.521507,0.03571 -0.02127,0.446429 -0.02126,0.446428 2.153908,0 c 1.934736,0 2.149495,-0.0115 2.110551,-0.112985 -0.02385,-0.06214 -0.04336,-0.254998 -0.04336,-0.428571 l 0,-0.315587 -0.383929,0 c -0.807449,0 -0.658409,0.151763 -2.364463,-2.407647 -0.850911,-1.27653 -1.531348,-2.357918 -1.512083,-2.403086 0.01927,-0.04517 0.609704,-0.917838 1.312086,-1.9392666 l 1.277059,-1.8571429 0.585665,-0.020746 0.585665,-0.020746 0,-0.4256826 0,-0.4256827 -1.75,0 -1.75,0 0,0.4257905 0,0.4257905 0.611417,0.020638 0.611418,0.020638 -0.800458,1.1785714 C 15.374534,9.8397292 14.90836,10.50893 14.778845,10.678628 l -0.235483,0.308541 -0.224578,-0.308541 c -0.363843,-0.499874 -1.783518,-2.6186546 -1.783518,-2.6617951 0,-0.021782 0.257143,-0.039604 0.571428,-0.039604 l 0.571429,0 0,-0.4285714 0,-0.4285714 -2.107143,0 -2.1071429,0 0,0.4285714 0,0.4285714 0.5535719,0.00181 0.553571,0.00181 1.428571,2.1487229 c 0.785715,1.181797 1.438964,2.176445 1.451666,2.210329 0.01663,0.04437 -2.631091,3.996135 -2.813067,4.19854 -0.01261,0.01402 -0.298057,0.04266 -0.634332,0.06364 -0.6092069,0.03801 -0.6114095,0.03885 -0.6114095,0.233433 0,0.107409 -0.020089,0.295735 -0.044643,0.418503 l -0.044643,0.223214 1.8303572,0 1.830357,0 0,-0.464285 z"
       id="path3067"
       inkscape:connector-curvature="0" />
    <path
       style="fill:#333333"
       d="m 23.749551,22.656116 0,-1.250315 0.823723,0 c 0.534116,0 0.905706,0.03425 1.056907,0.09743 0.898666,0.375487 0.918618,1.799582 0.03092,2.206614 -0.139183,0.06382 -0.570854,0.124892 -1.072259,0.151704 l -0.839286,0.04488 0,-1.250314 z"
       id="path3069"
       inkscape:connector-curvature="0" />
    <path
       style="fill:#000000"
       d="m 8.9160261,30.007103 -0.7828682,-0.841276 0,-11.706101 0,-11.7061021 0.785103,-0.7804984 0.785103,-0.7804984 13.2835011,0 13.283502,0 0.831146,0.8354858 0.831145,0.8354858 0,11.6673823 0,11.667383 -0.835486,0.831145 -0.835486,0.831145 -13.281396,-0.0061 -13.2813957,-0.0061 -0.7828682,-0.841276 z m 4.0658639,-5.308379 0,-3.232488 1.262691,0 1.26269,0 0,-0.555584 0,-0.555584 -3.18198,0 -3.1819806,0 0,0.555584 0,0.555584 1.2626906,0 1.262691,0 0,3.165144 c 0,1.74083 0.0303,3.19545 0.06734,3.232488 0.03704,0.03704 0.332509,0.06734 0.656599,0.06734 l 0.589256,0 0,-3.232488 z m 8.182236,2.676904 0,-0.555584 -1.767767,0 -1.767767,0 0,-1.159233 0,-1.159233 1.692005,-0.0277 1.692006,-0.0277 0,-0.505077 0,-0.505076 -1.692006,-0.0277 -1.692005,-0.0277 0,-0.957202 0,-0.957202 1.717259,0 1.717259,0 0,-0.555584 0,-0.555584 -2.373858,0 -2.373859,0 0,3.788072 0,3.788072 2.424367,0 2.424366,0 0,-0.555584 z m 2.626396,-0.970686 0,-1.52627 0.75249,0.038 c 0.556987,0.02813 0.825993,0.09192 1.035407,0.245561 0.159413,0.116954 0.591593,0.769363 0.990023,1.494514 l 0.707107,1.286953 0.505076,-0.06298 c 0.277792,-0.03464 0.54715,-0.104524 0.598574,-0.155299 0.155415,-0.153456 -0.756223,-1.854837 -1.702482,-3.177329 -0.06586,-0.09204 0.03038,-0.272057 0.32341,-0.604958 0.496825,-0.564423 0.605535,-1.059296 0.424965,-1.934518 -0.09679,-0.469122 -0.201866,-0.668861 -0.50338,-0.956841 -0.492794,-0.470675 -0.942959,-0.578163 -2.768851,-0.661129 l -1.473506,-0.06695 0,3.803759 0,3.803761 0.555583,0 0.555584,0 0,-1.52627 z m 6.974667,-1.327411 0.0046,-2.853681 0.55339,1.464721 c 1.168984,3.094089 1.043106,2.828544 1.340248,2.827315 0.147928,-6.06e-4 0.434178,-0.02844 0.63611,-0.06183 l 0.367149,-0.06072 0.744019,-2.022765 0.744019,-2.022766 0.06208,2.008837 c 0.03415,1.10486 0.06824,2.361127 0.07576,2.791705 l 0.01368,0.782868 0.555584,0 0.555584,0 0,-3.788072 0,-3.788072 -0.328299,9.09e-4 c -0.180565,5.05e-4 -0.56056,0.02879 -0.844434,0.0629 l -0.516135,0.06202 -0.843181,2.203014 c -0.46375,1.211658 -0.871119,2.185748 -0.905265,2.164645 -0.03414,-0.0211 -0.440089,-1.040763 -0.902098,-2.265911 L 31.238,20.355068 l -0.895312,0 -0.895311,0 0,3.720728 c 0,2.046401 0.0303,3.751034 0.06734,3.788072 0.03704,0.03704 0.332508,0.06734 0.6566,0.06734 l 0.589255,0 0.0046,-2.853681 -2e-6,0 z m -17.783299,-8.055967 0,-0.505076 -0.505076,0 c -0.291351,0 -0.505076,-0.04573 -0.505076,-0.108068 0,-0.237409 1.988901,-2.953721 2.108576,-2.879758 0.100789,0.06229 2.033049,2.845816 2.033049,2.928717 0,0.03251 -0.199254,0.05911 -0.442787,0.05911 -0.476657,0 -0.562904,0.1116 -0.565986,0.732361 l -0.0014,0.277792 2.171828,0 2.171828,0 0,-0.4473 0,-0.4473 -0.556394,-0.06952 c -0.481599,-0.06017 -0.594978,-0.118861 -0.843415,-0.436584 -0.356865,-0.456388 -2.20832,-3.234383 -2.571822,-3.858861 l -0.26854,-0.461337 1.281321,-1.8872673 1.281321,-1.8872679 0.586227,0 0.586226,0 0,-0.5074071 0,-0.5074072 -1.793021,0.027585 -1.79302,0.027585 -0.03079,0.4798224 -0.03079,0.4798225 0.619038,0 0.619038,0 -0.87841,1.2879445 C 15.170712,10.027521 14.718877,10.667588 14.649761,10.741523 14.547458,10.850959 14.352569,10.622088 13.60147,9.5104446 13.094026,8.7594166 12.678844,8.1193494 12.678844,8.088073 c 0,-0.031276 0.227285,-0.056866 0.505077,-0.056866 l 0.505076,0 0,-0.5050763 0,-0.5050763 -2.12132,0 -2.1213208,0 0,0.5050763 0,0.5050763 0.5394569,0 0.5394569,0 1.396669,2.0956712 c 0.768168,1.152619 1.396669,2.149508 1.396669,2.21531 0,0.0658 -0.608245,1.02648 -1.351655,2.13484 l -1.351655,2.015199 -0.601542,0.06287 c -0.3308486,0.03458 -0.6102632,0.07413 -0.6209218,0.08789 -0.010658,0.01376 -0.04897,0.21821 -0.085138,0.454333 l -0.065758,0.429315 1.8699758,0 1.869976,0 0,-0.505077 z"
       id="path3071"
       inkscape:connector-curvature="0" />
    <path
       style="fill:#000000"
       d="m 23.790522,22.663609 0,-1.217475 0.917495,0.03531 c 0.889861,0.03424 0.92637,0.04524 1.212183,0.365198 0.395991,0.443298 0.41181,1.081151 0.03783,1.525596 -0.263432,0.313071 -0.341935,0.335049 -1.637182,0.458361 l -0.53033,0.05049 0,-1.217474 z"
       id="path3073"
       inkscape:connector-curvature="0" />
    <path
       style="fill:#ffffff"
       d="m 11.971738,24.496693 0,-3.232488 -1.262691,0 -1.2626908,0 0,-0.303046 0,-0.303045 2.9799498,0 2.97995,0 0,0.303045 0,0.303046 -1.313198,0 -1.313198,0 0,3.232488 0,3.232488 -0.404061,0 -0.404061,0 0,-3.232488 z"
       id="path3241"
       inkscape:connector-curvature="0" />
    <path
       style="fill:#ff2a2a"
       d="m 16.517424,24.193648 0,-3.535534 2.222336,0 2.222335,0 0,0.303045 0,0.303046 -1.818274,0 -1.818275,0 0,1.161676 0,1.161675 1.717259,0 1.71726,0 0,0.353553 0,0.353554 -1.71726,0 -1.717259,0 0,1.414213 0,1.414214 1.868782,0 1.868782,0 0,0.303046 0,0.303045 -2.272843,0 -2.272843,0 0,-3.535533 z"
       id="path3243"
       inkscape:connector-curvature="0" />
    <path
       style="fill:#a0892c"
       d="m 16.517424,24.193648 0,-3.535534 2.222336,0 2.222335,0 0,0.303045 0,0.303046 -1.818274,0 -1.818275,0 0,1.161676 0,1.161675 1.717259,0 1.71726,0 0,0.353553 0,0.353554 -1.71726,0 -1.717259,0 0,1.414213 0,1.414214 1.868782,0 1.868782,0 0,0.303046 0,0.303045 -2.272843,0 -2.272843,0 0,-3.535533 z"
       id="path3245"
       inkscape:connector-curvature="0" />
    <path
       style="fill:#c8ab37"
       d="m 16.556963,24.193648 0,-3.535534 2.171828,0 2.171828,0 0,0.303045 0,0.303046 -1.818275,0 -1.818274,0 0,1.161676 0,1.161675 1.717259,0 1.717259,0 0,0.353553 0,0.353554 -1.717259,0 -1.717259,0 0,1.414213 0,1.414214 1.868782,0 1.868782,0 0,0.303046 0,0.303045 -2.222335,0 -2.222336,0 0,-3.535533 z"
       id="path3247"
       inkscape:connector-curvature="0" />
    <path
       style="fill:#7fff2a"
       d="m 22.819909,24.183063 0,-3.546118 1.59099,0.03584 c 1.51785,0.03419 1.612492,0.04848 2.058711,0.310796 0.551135,0.323995 0.79497,0.816546 0.79497,1.605856 0,0.666038 -0.239844,1.15546 -0.722894,1.475128 -0.213551,0.141321 -0.388274,0.277664 -0.388274,0.302986 0,0.02532 0.19479,0.268712 0.432866,0.540869 0.360684,0.412316 1.587439,2.54222 1.587439,2.756126 0,0.03555 -0.172071,0.06464 -0.38238,0.06464 -0.371579,0 -0.39186,-0.01926 -0.718031,-0.681852 -0.184609,-0.37502 -0.517007,-0.992864 -0.738664,-1.372987 -0.490978,-0.841987 -0.750571,-0.975618 -1.895245,-0.975618 l -0.811366,0 0,1.515229 0,1.515228 -0.404061,0 -0.404061,0 0,-3.546118 z m 3.091301,-0.441467 c 0.392964,-0.25748 0.577355,-0.726647 0.509791,-1.297119 -0.104959,-0.886209 -0.586088,-1.180272 -1.931096,-1.180272 l -0.861874,0 0,1.378966 0,1.378965 1.02259,-0.0623 c 0.659357,-0.04017 1.10713,-0.117691 1.260589,-0.218241 l 0,0 z"
       id="path3249"
       inkscape:connector-curvature="0" />
    <path
       style="fill:#87decd"
       d="m 29.789961,24.193648 0,-3.535534 0.647757,0 0.647757,0 0.297145,0.782868 c 0.163429,0.430577 0.583286,1.546596 0.933015,2.480041 0.349728,0.933446 0.671885,1.660755 0.715904,1.616244 0.04402,-0.04451 0.48491,-1.149165 0.979759,-2.454787 l 0.899725,-2.373859 0.671958,-0.02987 0.671957,-0.02987 0,3.540149 0,3.540149 -0.404061,0 -0.404061,0 0,-3.252691 c 0,-1.903764 -0.03726,-3.212893 -0.08986,-3.156726 -0.04942,0.05278 -0.47753,1.118744 -0.951352,2.368807 -0.473822,1.250064 -0.892819,2.352393 -0.931103,2.44962 -0.05086,0.129165 -0.182327,0.17631 -0.488116,0.175044 l -0.418507,-0.0017 -0.729866,-1.95387 c -0.401426,-1.074628 -0.82958,-2.176177 -0.951454,-2.447886 l -0.221587,-0.494017 -0.07647,0.454569 c -0.04206,0.250012 -0.07983,1.670539 -0.08395,3.156726 l -0.0075,2.702158 -0.353553,0 -0.353554,0 0,-3.535533 z"
       id="path3251"
       inkscape:connector-curvature="0" />
    <path
       style="fill:#87decd"
       d="m 29.789961,24.188827 0,-3.540354 0.624241,0.03007 0.624241,0.03007 0.180474,0.454569 c 0.09926,0.250013 0.49978,1.290351 0.890044,2.311862 0.390263,1.021512 0.763264,1.921992 0.82889,2.001068 0.127897,0.154106 0.464622,-0.604185 1.466622,-3.302778 0.257864,-0.694479 0.495603,-1.291139 0.528309,-1.325909 0.03271,-0.03477 0.34357,-0.08728 0.69081,-0.11669 l 0.631346,-0.05347 0,3.525955 0,3.525954 -0.404061,0 -0.404061,0 0,-3.252691 c 0,-2.03656 -0.0356,-3.216811 -0.0952,-3.156726 -0.05236,0.05278 -0.484802,1.096015 -0.960982,2.3183 -0.476179,1.222284 -0.903901,2.290521 -0.950493,2.373858 -0.103394,0.184938 -0.922767,0.270672 -0.922767,0.09655 0,-0.130846 -1.580732,-4.274854 -1.751516,-4.591731 -0.101579,-0.188472 -0.113449,-0.181693 -0.176886,0.101016 -0.0374,0.166675 -0.07338,1.60993 -0.07995,3.207234 l -0.01195,2.904188 -0.353553,0 -0.353554,0 0,-3.540354 z"
       id="path3253"
       inkscape:connector-curvature="0" />
    <path
       style="fill:#87decd"
       d="m 29.789961,24.188827 0,-3.540354 0.630129,0.03007 0.630128,0.03007 0.728934,1.91929 c 0.782964,2.061552 1.136476,2.878935 1.245118,2.878935 0.05389,0 1.304263,-3.086591 1.810758,-4.469925 0.08915,-0.243497 0.155021,-0.277962 0.533526,-0.279171 0.237498,-7.59e-4 0.534093,-0.02879 0.659099,-0.06229 l 0.227285,-0.06091 0,3.547315 0,3.547315 -0.404061,0 -0.404061,0 0,-3.114637 c 0,-1.71305 -0.03036,-3.144996 -0.06747,-3.182103 -0.0758,-0.0758 -0.586377,1.10733 -1.361346,3.154589 -0.286143,0.755911 -0.564581,1.431206 -0.618752,1.500654 -0.114679,0.147019 -0.881878,0.172722 -0.881878,0.02954 0,-0.184893 -1.747697,-4.650992 -1.82005,-4.650992 -0.150565,0 -0.198064,0.837254 -0.199143,3.51028 l -0.0011,2.752665 -0.353553,0 -0.353554,0 0,-3.540354 z"
       id="path3255"
       inkscape:connector-curvature="0" />
    <path
       style="fill:#87decd"
       d="m 29.789961,24.188827 0,-3.540354 0.626288,0.03007 0.626288,0.03007 0.867281,2.222336 c 1.104685,2.830663 1.037804,2.71583 1.290072,2.215015 0.109915,-0.218207 0.530929,-1.260421 0.935588,-2.31603 0.404658,-1.05561 0.762973,-1.947529 0.796255,-1.982044 0.03328,-0.03451 0.344619,-0.09064 0.691859,-0.12472 l 0.631346,-0.06197 0,3.533985 0,3.533985 -0.404061,0 -0.404061,0 0,-3.075003 c 0,-1.753747 -0.03977,-3.099583 -0.09256,-3.132208 -0.05091,-0.03146 -0.490998,0.954541 -0.977979,2.19112 -0.486981,1.236578 -0.928193,2.305146 -0.98047,2.374594 -0.05228,0.06945 -0.259948,0.126191 -0.461489,0.126095 l -0.366438,-1.73e-4 -0.694638,-1.843355 c -0.382051,-1.013845 -0.809889,-2.093368 -0.950751,-2.398939 l -0.256114,-0.555584 -0.07717,0.454569 c -0.04244,0.250012 -0.08054,1.670539 -0.08465,3.156726 l -0.0075,2.702158 -0.353553,0 -0.353554,0 0,-3.540354 z"
       id="path3257"
       inkscape:connector-curvature="0" />
    <path
       style="fill:#806600"
       d="m 16.556963,24.193648 0,-3.535534 2.171828,0 2.171828,0 0,0.303045 0,0.303046 -1.818275,0 -1.818274,0 0,1.161676 0,1.161675 1.717259,0 1.717259,0 0,0.353553 0,0.353554 -1.717259,0 -1.717259,0 0,1.414213 0,1.414214 1.868782,0 1.868782,0 0,0.303046 0,0.303045 -2.222335,0 -2.222336,0 0,-3.535533 z"
       id="path3259"
       inkscape:connector-curvature="0" />
    <path
       style="fill:#ff0000"
       d="m 9.6051385,17.097326 c 0.027178,-0.191365 0.1245446,-0.243249 0.6160905,-0.3283 l 0.583811,-0.101015 1.413575,-2.118147 c 0.812805,-1.217935 1.390021,-2.179526 1.358155,-2.262568 -0.03048,-0.07943 -0.696041,-1.115004 -1.479023,-2.3012707 l -1.423603,-2.156849 -0.383832,0 c -0.5142392,0 -0.7034016,-0.084403 -0.7034016,-0.3138533 0,-0.1809354 0.1036338,-0.191223 1.9263156,-0.191223 l 1.926315,0 -0.03228,0.2272843 c -0.02648,0.1864639 -0.104849,0.2324548 -0.436341,0.2560728 -0.645727,0.046007 -0.685649,0.076693 -0.518724,0.3987116 0.210656,0.4063792 1.666263,2.5643773 1.904847,2.8240163 l 0.203134,0.221059 0.228259,-0.271566 c 0.483598,-0.57535 2.063712,-2.9804807 2.012521,-3.063309 -0.02964,-0.047956 -0.323946,-0.087193 -0.654018,-0.087193 -0.572795,0 -0.60013,-0.011503 -0.60013,-0.2525382 l 0,-0.2525381 1.565737,0 c 1.468896,0 1.565736,0.011827 1.565736,0.191223 0,0.2290799 -0.189137,0.3138533 -0.700237,0.3138533 l -0.380668,0 -1.338989,2.0135806 c -0.736444,1.1074691 -1.322828,2.0553301 -1.303076,2.1063571 0.01975,0.05103 0.740495,1.167439 1.60165,2.480915 l 1.565736,2.388138 0.53033,6.87e-4 c 0.49816,6.39e-4 0.530331,0.016 0.530331,0.253218 l 0,0.252538 -1.926316,0 -1.926316,0 0.03228,-0.227284 c 0.02719,-0.191457 0.124495,-0.243208 0.617277,-0.3283 l 0.584997,-0.101015 -1.191089,-1.766507 c -0.655099,-0.971579 -1.259274,-1.777991 -1.342611,-1.792027 -0.09572,-0.01612 -0.608384,0.634391 -1.392156,1.766507 l -1.240633,1.792027 0.659795,0.08757 c 0.603305,0.08008 0.659795,0.108185 0.659795,0.3283 l 0,0.240725 -1.572762,0 -1.572762,0 0.03228,-0.227284 z"
       id="path3261"
       inkscape:connector-curvature="0" />
  </g>
</svg>
